<?xml version="1.0" standalone="no"?>
<!DOCTYPE svg PUBLIC "-//W3C//DTD SVG 20010904//EN"
 "http://www.w3.org/TR/2001/REC-SVG-20010904/DTD/svg10.dtd">
<svg version="1.0" xmlns="http://www.w3.org/2000/svg"
 width="740.000000pt" height="740.000000pt" viewBox="0 0 740.000000 740.000000"
 preserveAspectRatio="xMidYMid meet">

<g transform="translate(0.000000,740.000000) scale(0.100000,-0.100000)"
fill="#000000" stroke="none">
<path d="M3662 7005 c0 -16 2 -22 5 -12 2 9 2 23 0 30 -3 6 -5 -1 -5 -18z"/>
<path d="M3631 6898 c-13 -40 -29 -92 -37 -116 l-13 -43 52 6 c29 3 95 11 147
18 l95 12 -110 10 -110 10 3 88 c2 48 1 87 -1 87 -2 0 -13 -33 -26 -72z"/>
<path d="M3858 6760 c-15 -4 -90 -18 -167 -30 l-141 -22 28 -27 c15 -14 52
-61 82 -103 29 -43 58 -78 62 -78 5 0 7 -3 5 -8 -3 -4 6 -21 19 -37 l25 -30
-20 45 c-10 25 -33 76 -50 114 -17 38 -30 70 -29 72 2 1 62 28 133 58 72 30
119 55 105 55 -14 -1 -37 -4 -52 -9z"/>
<path d="M3496 6545 c-21 -58 -36 -108 -33 -112 4 -3 7 1 7 10 0 10 5 17 10
17 6 0 10 -9 10 -20 0 -11 -5 -20 -10 -20 -7 0 -7 -7 0 -20 8 -16 8 -24 -4
-35 -9 -10 -17 -11 -21 -5 -11 17 -27 11 -20 -9 3 -10 -1 -24 -10 -31 -19 -16
-19 -27 0 -46 22 -23 18 -36 -5 -17 -11 10 -20 29 -20 42 0 18 -3 22 -11 14
-8 -8 -6 -20 6 -44 10 -19 12 -29 5 -22 -7 6 -19 9 -27 6 -7 -3 -24 3 -36 13
l-22 19 19 -23 c20 -23 20 -23 -2 -29 -18 -4 -20 -8 -11 -19 8 -10 8 -14 0
-14 -6 0 -11 -5 -11 -11 0 -6 8 -8 19 -4 11 3 23 0 27 -6 4 -7 3 -9 -3 -6 -5
3 -26 2 -48 -3 -54 -12 -135 -1 -135 18 0 11 -6 9 -20 -8 -11 -13 -20 -25 -20
-28 0 -3 23 -2 51 1 50 6 86 -3 101 -27 5 -7 12 -5 20 7 11 15 33 22 81 26 5
1 5 6 2 11 -3 6 -1 10 5 10 7 0 10 7 7 15 -5 11 0 13 25 8 22 -4 29 -3 24 5
-5 8 0 12 13 12 15 0 21 -7 22 -22 0 -13 3 -17 6 -10 9 23 23 13 14 -11 -6
-14 -5 -30 1 -41 9 -16 8 -17 -14 -5 -21 11 -22 11 -10 -4 12 -14 10 -18 -20
-30 -18 -8 -34 -10 -36 -5 -2 4 -13 8 -25 7 -12 0 -16 -3 -9 -6 6 -2 12 -9 12
-14 0 -6 -4 -8 -8 -5 -9 5 -35 -23 -40 -43 -2 -9 4 -10 19 -6 l22 7 -21 -22
c-22 -23 -21 -46 1 -34 7 4 2 -4 -9 -17 -37 -41 -16 -55 22 -15 19 20 36 36
38 36 3 0 2 -9 -3 -57 0 -6 -7 -18 -14 -25 -7 -7 -15 -17 -16 -23 -1 -5 -9 -9
-16 -7 -10 2 -13 -3 -8 -14 5 -14 2 -16 -21 -10 -16 4 -25 3 -22 -3 3 -5 -1
-11 -9 -14 -9 -4 -12 -1 -9 7 3 8 0 17 -6 21 -8 5 -6 13 6 26 9 10 14 19 9 19
-4 0 -14 -8 -21 -17 -11 -15 -15 -16 -26 -4 -9 10 -9 12 0 7 6 -4 12 -2 12 3
0 6 -5 11 -11 11 -5 0 -8 4 -5 8 2 4 -7 8 -21 7 -15 0 -28 -6 -31 -14 -3 -10
0 -12 12 -8 19 7 22 -8 4 -19 -14 -9 -48 -13 -48 -7 0 3 5 13 11 25 10 18 8
19 -12 13 -53 -17 -81 -33 -71 -39 6 -4 23 1 37 10 23 15 25 15 19 0 -3 -9
-10 -13 -15 -10 -5 3 -9 0 -9 -6 0 -7 8 -9 22 -4 21 6 22 5 8 -11 -9 -11 -10
-16 -2 -11 14 8 16 -12 3 -33 -6 -9 -11 -10 -15 -2 -4 6 -1 11 6 11 7 0 -1 9
-18 19 -18 11 -35 24 -38 30 -4 5 -13 8 -21 4 -8 -3 -15 -1 -15 3 0 11 95 54
119 54 9 0 25 6 36 13 14 11 15 16 5 22 -9 5 -11 4 -6 -3 7 -12 -40 -29 -51
-18 -4 3 1 6 11 6 15 0 16 2 2 15 -18 18 -27 19 -20 2 7 -21 -26 -45 -81 -58
-81 -19 -83 -20 -52 -33 34 -15 25 -26 -22 -27 l-36 -1 38 -8 c59 -11 56 -21
-4 -14 -46 5 -57 4 -62 -10 -5 -13 0 -16 28 -16 31 0 35 -3 35 -25 0 -17 6
-25 17 -25 37 0 -6 -22 -58 -30 l-54 -8 58 -1 c39 -1 56 -5 51 -12 -3 -6 -27
-10 -53 -9 -62 3 -73 2 -67 -9 4 -5 0 -12 -6 -14 -7 -3 1 -6 17 -6 37 -2 72
-21 38 -21 -12 0 -25 -5 -28 -10 -4 -6 -3 -9 2 -8 14 4 53 -13 53 -23 0 -6 5
-7 11 -3 8 4 7 9 -2 15 -7 4 -10 11 -6 16 5 4 12 1 16 -6 5 -7 14 -11 20 -7 7
5 9 1 5 -8 -3 -9 -10 -14 -14 -11 -4 3 -10 -2 -13 -10 -4 -9 -1 -12 9 -8 7 3
14 0 14 -6 0 -16 -30 -13 -36 3 -4 9 -18 14 -39 13 -34 -2 -38 -17 -4 -17 10
0 19 -4 19 -10 0 -5 -7 -10 -16 -10 -8 0 -13 -4 -10 -9 8 -12 -64 -31 -117
-31 -25 0 -49 -4 -52 -10 -3 -5 0 -10 7 -10 9 0 9 -3 -2 -10 -12 -8 -10 -10 8
-10 13 0 21 4 18 8 -2 4 3 8 12 9 9 1 42 8 72 17 58 17 176 32 150 19 -18 -9
-20 -39 -2 -36 7 2 12 -2 12 -7 0 -6 -11 -8 -25 -6 -14 3 -25 0 -25 -5 0 -6
-18 -18 -41 -28 -25 -11 -36 -21 -27 -24 8 -3 6 -6 -7 -7 -11 0 -31 -7 -45
-15 -22 -12 -23 -14 -7 -20 17 -7 17 -8 0 -21 -10 -7 -30 -14 -44 -14 -14 0
-36 -9 -48 -20 -16 -13 -32 -18 -55 -14 -27 4 -28 3 -8 -5 12 -6 22 -15 22
-21 0 -5 5 -10 11 -10 5 0 8 4 5 9 -3 5 4 11 17 15 31 8 37 7 37 -5 0 -6 -7
-9 -15 -5 -8 3 -15 1 -15 -4 0 -6 10 -10 23 -11 16 -1 13 -3 -12 -11 -19 -5
-46 -18 -59 -29 -14 -10 -32 -19 -41 -19 -13 0 -13 -2 -2 -9 11 -7 10 -10 -5
-14 -17 -4 -17 -5 -1 -6 10 0 35 8 57 19 22 11 42 20 45 20 7 0 -17 -43 -30
-52 -6 -5 -5 -8 2 -8 11 0 43 49 43 66 0 3 -14 4 -30 0 -18 -3 -29 -2 -25 3 3
5 20 12 38 16 17 4 41 9 52 12 19 5 19 4 4 -13 -8 -11 -23 -32 -33 -47 -18
-29 -18 -29 4 -22 17 6 21 4 14 -6 -7 -12 -5 -12 9 0 9 7 14 18 11 25 -3 6 1
3 9 -7 13 -15 16 -15 27 -2 9 10 9 15 1 16 -6 1 -17 2 -23 3 -7 1 -19 -2 -25
-7 -21 -15 -15 7 9 39 12 16 27 32 33 36 15 11 37 10 30 -2 -4 -6 -11 -8 -16
-5 -5 4 -9 -1 -9 -9 0 -9 5 -16 10 -16 6 0 10 -5 10 -11 0 -6 -7 -9 -15 -5 -8
3 -15 1 -15 -3 0 -16 28 -20 34 -5 3 8 13 14 21 14 9 0 13 5 10 10 -3 6 -2 10
4 10 5 0 13 -4 16 -10 3 -5 2 -10 -3 -10 -5 0 -12 -10 -15 -22 -4 -12 -9 -19
-13 -15 -4 3 -21 -4 -38 -16 -17 -12 -33 -20 -34 -19 -2 2 -6 1 -9 -2 -11 -10
17 -6 40 5 16 9 22 9 25 0 2 -6 10 -11 19 -11 8 0 22 -8 31 -17 16 -16 16 -16
-3 -9 -41 16 -49 16 -17 0 36 -20 43 -39 11 -31 -14 4 -19 1 -16 -7 3 -8 -4
-11 -24 -8 -16 2 -29 8 -29 13 0 5 -7 9 -15 9 -9 0 -12 -6 -9 -15 4 -8 16 -15
28 -15 11 0 32 -3 45 -7 21 -5 16 -10 -40 -37 -35 -17 -86 -44 -114 -60 -44
-26 -48 -27 -30 -7 11 12 54 39 97 60 l77 38 -57 1 c-60 2 -122 -13 -122 -29
0 -15 40 -10 46 6 4 9 19 15 38 15 l31 0 -25 -20 c-14 -11 -50 -27 -80 -36
-81 -24 -90 -35 -44 -51 35 -12 41 -12 66 7 16 12 32 19 37 16 5 -3 20 3 34
14 37 29 45 24 14 -8 -26 -27 -26 -28 -7 -40 12 -7 20 -8 20 -2 0 5 7 10 15
10 27 0 16 -16 -21 -30 -29 -12 -32 -15 -17 -21 16 -5 16 -7 -5 -13 -12 -4
-20 -12 -17 -17 10 -16 -22 -39 -54 -39 -16 0 -33 -5 -36 -10 -4 -7 8 -8 37
-4 29 4 40 3 33 -3 -18 -18 -121 -23 -143 -7 -17 12 -20 12 -18 -1 3 -23 39
-56 54 -50 7 3 22 0 33 -5 13 -7 19 -7 19 0 0 5 5 10 10 10 6 0 10 -4 10 -9 0
-18 -40 -23 -78 -10 -20 7 -41 14 -47 15 -5 1 -26 9 -46 17 -19 9 -41 12 -48
8 -10 -6 -9 -10 4 -15 9 -3 14 -10 11 -15 -7 -11 28 -21 81 -21 23 0 45 -5 49
-11 5 -9 -12 -10 -62 -6 -57 5 -62 4 -29 -4 22 -5 49 -13 60 -19 11 -5 31 -11
45 -13 23 -3 23 -4 5 -12 -47 -21 -92 -102 -83 -150 5 -26 -7 -35 -48 -35 -13
0 -24 -5 -24 -10 0 -6 -10 -15 -22 -19 -16 -6 -8 -8 29 -5 29 1 55 -1 58 -7 4
-5 11 -6 17 -3 7 4 8 2 4 -5 -4 -6 -12 -9 -17 -5 -5 3 -17 0 -26 -8 -15 -11
-16 -11 -10 5 9 24 -10 21 -23 -4 -10 -17 -8 -21 10 -26 31 -8 18 -28 -16 -25
l-29 3 24 -13 c29 -15 38 -35 17 -35 -8 0 -13 4 -10 9 3 4 -1 8 -8 8 -7 0 -24
3 -38 5 -23 5 -23 4 3 -6 15 -6 27 -15 27 -21 0 -6 -8 -7 -17 -3 -10 4 -27 10
-38 12 -17 5 -17 3 4 -12 13 -10 32 -18 42 -19 11 -1 18 -5 17 -11 -4 -13 -40
-8 -50 8 -6 9 -10 9 -16 0 -4 -6 -23 -13 -42 -16 -23 -2 -13 -4 27 -5 l61 -2
-2 -34 c-2 -18 -6 -38 -10 -45 -4 -6 -5 -11 -2 -11 3 0 12 14 21 30 21 40 36
39 24 -2 -12 -45 -4 -47 11 -2 9 26 15 33 21 23 6 -10 9 -8 9 9 0 12 5 22 10
22 13 0 13 -12 0 -46 -8 -21 -8 -29 2 -36 19 -11 30 -10 22 3 -4 7 -1 10 7 7
8 -3 14 -18 14 -34 0 -16 8 -36 17 -45 10 -9 15 -19 12 -22 -3 -3 3 -3 13 -1
17 5 20 1 18 -25 -1 -17 3 -31 9 -31 6 0 3 -5 -7 -11 -9 -6 -15 -14 -12 -19 3
-5 1 -11 -5 -15 -17 -10 -11 -25 7 -18 11 4 14 3 9 -6 -5 -8 -19 -10 -37 -6
-34 8 -38 -6 -9 -35 20 -20 20 -20 -4 -18 -14 1 -24 5 -24 8 2 24 -6 29 -46
27 -24 -1 -42 -5 -39 -9 2 -5 -1 -8 -8 -8 -7 0 -4 -6 6 -14 17 -12 21 -12 31
3 11 14 15 14 26 2 11 -12 10 -13 -6 -7 -13 4 -17 2 -13 -8 10 -25 -17 -25
-50 1 -38 27 -44 24 -11 -7 12 -11 18 -23 15 -27 -4 -3 -21 6 -37 22 -17 16
-30 23 -30 17 0 -7 6 -15 14 -18 8 -3 17 -12 20 -19 4 -12 0 -12 -22 -2 -15 6
-33 17 -40 24 -18 18 -21 16 -15 -6 3 -12 15 -21 32 -23 19 -2 25 -8 24 -23
-1 -11 0 -14 3 -7 3 6 11 12 17 12 8 0 7 -4 -1 -12 -18 -18 -15 -38 6 -32 14
5 14 3 -3 -11 -17 -14 -18 -17 -5 -26 13 -9 13 -10 -1 -6 -9 3 -22 1 -30 -4
-10 -7 -1 -9 28 -7 23 1 45 -1 49 -5 10 -10 26 -9 20 2 -8 13 45 24 57 12 8
-8 7 -11 -1 -12 -7 -1 -16 -3 -22 -4 -5 -1 -13 -3 -17 -4 -5 -1 -1 -5 7 -11 8
-5 11 -12 7 -16 -4 -4 -20 2 -36 14 -25 18 -30 19 -35 6 -4 -9 -2 -12 5 -8 6
4 15 0 20 -7 14 -23 10 -28 -18 -24 -16 2 -31 4 -35 4 -5 1 -8 6 -8 12 0 5 5
7 10 4 6 -3 10 -1 10 5 0 6 -7 13 -15 15 -53 17 -52 15 -30 31 17 13 18 16 5
24 -8 5 -10 10 -4 10 6 0 11 7 11 15 0 10 -11 16 -31 16 -30 2 -30 2 -3 6 15
2 27 8 27 13 0 5 -6 7 -14 4 -8 -3 -17 -1 -21 5 -3 6 -16 11 -28 11 -17 0 -19
-2 -8 -9 19 -12 -48 -31 -111 -31 -50 0 -62 -7 -48 -30 7 -12 19 -10 74 9 35
12 73 21 83 19 10 -2 -14 -14 -54 -27 -40 -12 -73 -25 -73 -28 0 -3 12 -2 28
2 48 13 92 16 92 5 0 -5 13 -7 32 -3 22 4 29 3 24 -5 -4 -7 -13 -12 -21 -12
-8 0 -16 -4 -19 -9 -4 -5 4 -7 16 -3 14 3 19 2 14 -6 -4 -7 -16 -12 -27 -12
-11 0 -18 -4 -14 -9 3 -5 -5 -12 -17 -14 -14 -2 -7 -5 17 -6 22 -1 47 -6 55
-11 12 -7 8 -11 -17 -16 -18 -4 -30 -10 -27 -15 10 -16 -9 -9 -31 11 -18 17
-26 19 -53 9 -42 -14 -40 -24 8 -43 59 -23 67 -20 34 15 -22 24 -24 29 -8 21
25 -13 46 -37 42 -48 -3 -10 49 -64 60 -63 27 4 43 -3 40 -18 -3 -18 -22 -31
-47 -32 -9 -1 -5 7 9 19 16 14 18 20 9 20 -8 0 -21 -6 -27 -12 -10 -10 -15
-10 -21 1 -5 7 -15 11 -22 9 -8 -3 -22 2 -33 11 -16 14 -16 12 3 -19 23 -39
26 -50 11 -50 -6 0 -15 10 -20 23 -5 13 -9 16 -10 7 0 -10 -9 -5 -26 15 -15
18 -22 23 -18 11 6 -14 4 -17 -5 -11 -10 6 -11 3 -1 -14 6 -12 15 -19 20 -16
6 3 7 -1 4 -10 -5 -11 -2 -14 10 -9 9 3 16 1 16 -6 0 -6 -12 -11 -27 -10 -16
1 -30 1 -33 0 -20 -7 -41 -7 -46 1 -5 8 0 10 33 13 7 1 14 3 14 6 3 8 -40 88
-51 95 -5 3 0 -11 12 -31 16 -26 19 -39 10 -42 -7 -2 -10 -8 -6 -13 13 -22
-19 -6 -61 31 -25 22 -52 40 -58 40 -7 0 -6 -4 3 -10 13 -9 13 -10 0 -11 -8 0
-1 -5 15 -11 38 -14 56 -28 49 -39 -3 -5 2 -9 10 -9 9 0 16 -4 16 -9 0 -5 -13
-9 -30 -9 -23 1 -28 4 -19 14 8 10 3 12 -28 7 -21 -3 -40 -7 -42 -9 -2 -2 -13
2 -25 8 -11 6 -18 7 -14 3 4 -5 3 -14 -3 -22 -6 -7 -10 -13 -8 -14 2 0 22 -3
44 -5 47 -6 53 -10 36 -27 -11 -9 -14 -9 -18 1 -3 6 -8 10 -13 7 -5 -3 -32 4
-60 15 -61 24 -64 24 -56 5 3 -8 0 -15 -6 -15 -6 0 -9 -3 -5 -6 3 -4 45 -10
94 -15 48 -5 92 -14 98 -20 7 -7 -9 -9 -55 -5 -44 4 -57 3 -40 -3 14 -5 39 -9
57 -10 17 -1 34 -7 37 -13 3 -10 9 -8 19 5 15 18 37 23 37 8 0 -6 -5 -13 -11
-17 -8 -4 -5 -10 7 -17 17 -10 17 -11 -1 -18 -17 -7 -18 -8 -2 -8 9 -1 17 -6
17 -12 0 -6 -8 -8 -19 -4 -11 3 -23 0 -27 -6 -4 -7 -3 -9 3 -6 5 3 26 2 46 -4
44 -12 51 -34 8 -24 -17 4 -32 2 -36 -5 -3 -6 -3 -10 2 -9 28 5 36 -3 14 -15
-19 -10 -20 -14 -8 -19 9 -3 17 -1 19 5 2 6 10 3 17 -6 12 -14 12 -16 -2 -11
-8 4 -18 1 -22 -5 -5 -8 -12 -6 -25 5 -18 16 -18 16 -13 -4 7 -26 -14 -28 -33
-3 -12 16 -13 16 -10 -1 1 -10 9 -23 17 -29 10 -7 7 -8 -13 -4 -14 3 -28 2
-30 -4 -3 -10 -62 -18 -135 -19 -31 -1 -43 -5 -43 -16 0 -17 41 -20 69 -6 10
6 53 12 97 15 l79 6 -75 -15 c-121 -24 -146 -34 -75 -30 33 2 69 7 80 11 17 7
18 6 7 -8 -10 -12 -8 -20 14 -43 14 -15 22 -30 19 -33 -3 -4 -10 0 -16 8 -7
11 -11 12 -17 3 -12 -19 -53 -30 -110 -32 -29 0 -60 -4 -68 -9 -13 -7 -13 -10
1 -22 14 -11 22 -12 48 -1 52 21 130 41 159 41 19 0 26 4 22 14 -3 7 1 20 9
27 16 17 11 39 -10 39 -8 0 -13 5 -11 12 5 14 29 24 27 11 -3 -20 2 -25 16
-13 15 12 22 0 8 -14 -4 -3 -8 -13 -9 -21 -2 -12 2 -12 22 1 12 9 28 13 34 9
5 -3 10 -1 10 5 0 6 5 8 11 4 15 -9 -9 -24 -28 -17 -8 3 -13 0 -11 -8 2 -8 -4
-15 -12 -15 -8 -1 -21 -2 -27 -3 -20 -2 -15 -21 5 -21 31 -1 -11 -19 -56 -25
-52 -6 -176 -45 -168 -52 3 -3 19 0 36 7 17 7 33 10 37 7 3 -4 21 0 40 8 47
20 53 18 23 -6 -28 -24 -9 -15 33 14 20 14 32 16 39 9 8 -8 0 -17 -26 -32 -37
-23 -51 -39 -17 -20 25 13 34 13 25 -1 -4 -8 0 -8 15 0 11 7 21 9 21 6 0 -3
11 2 25 11 14 9 25 13 25 8 0 -4 11 3 24 15 18 17 26 19 31 10 5 -7 4 -10 -1
-7 -5 3 -17 -5 -27 -18 -27 -36 -12 -29 40 19 26 23 44 34 40 25 -7 -21 3 -24
21 -6 9 9 15 8 27 -8 18 -24 19 -40 1 -25 -23 19 -27 -4 -6 -27 21 -23 28 -44
8 -24 -7 7 -32 11 -57 11 -28 -1 -36 -4 -21 -6 14 -3 33 -13 43 -24 21 -22 15
-24 -13 -6 -17 10 -22 9 -30 -2 -6 -11 -12 -12 -22 -4 -7 5 -29 15 -48 22
l-35 11 24 -19 c14 -10 30 -17 36 -15 7 3 18 -2 25 -11 12 -15 0 -22 -14 -8
-3 4 -14 8 -24 10 -90 16 -122 10 -81 -14 l24 -14 -29 6 c-27 6 -27 5 -12 -11
23 -23 13 -29 -25 -15 -37 13 -64 14 -34 1 16 -7 13 -9 -17 -9 -21 -1 -38 -5
-38 -10 0 -6 -21 -12 -47 -14 l-48 -3 51 -2 c47 -2 132 10 177 24 9 3 17 1 17
-3 0 -12 -106 -34 -176 -38 -75 -3 -73 -2 -70 -22 4 -24 20 -27 55 -8 17 8 32
15 33 15 2 -1 10 2 20 5 9 4 29 5 45 3 l28 -3 -28 -19 c-22 -15 -30 -17 -37
-7 -6 11 -9 10 -16 0 -5 -8 -9 -21 -11 -29 -1 -12 1 -11 11 2 7 10 16 15 19
11 7 -6 77 38 77 48 0 11 29 19 45 12 14 -5 14 -8 -1 -24 -12 -13 -13 -19 -4
-19 10 0 10 -3 1 -14 -10 -11 -8 -17 6 -25 15 -9 13 -10 -12 -5 l-30 6 32 -21
c43 -27 42 -35 -3 -16 -46 19 -53 19 -28 0 19 -14 19 -14 -1 -15 -16 -1 -14
-4 10 -15 l30 -14 -33 -1 c-30 0 -32 -2 -21 -21 10 -19 9 -21 -7 -17 -11 3
-27 9 -37 13 -15 6 -18 4 -15 -11 2 -11 8 -23 13 -27 6 -6 6 -10 -3 -14 -6 -2
-10 -8 -7 -13 3 -4 -2 -13 -10 -20 -19 -16 -19 -30 1 -30 8 0 12 -5 9 -10 -4
-6 -15 -8 -26 -5 -13 4 -19 2 -19 -9 0 -8 -9 -18 -20 -21 -11 -3 -20 -10 -20
-14 0 -9 -18 -12 -75 -12 -22 -1 -32 -3 -22 -6 9 -2 17 -8 17 -13 0 -14 -31
-20 -50 -10 -28 15 -37 12 -14 -5 18 -14 18 -14 0 -15 -12 0 -16 -5 -12 -15 3
-10 -3 -17 -20 -21 -16 -4 -23 -12 -20 -20 3 -8 -1 -14 -9 -14 -9 0 -12 -6 -9
-15 4 -8 17 -15 30 -15 13 0 24 -5 24 -10 0 -11 -67 -4 -108 11 -31 12 -55 11
-47 -1 3 -5 1 -10 -5 -10 -6 0 -8 -5 -5 -11 5 -7 28 -9 64 -5 31 3 70 2 86 -3
l30 -8 -29 -12 c-21 -8 -31 -9 -36 -1 -7 12 -40 3 -40 -11 0 -5 10 -9 21 -9
32 0 99 22 99 32 0 5 5 6 11 2 8 -5 6 -10 -5 -16 -9 -5 -16 -15 -16 -23 0 -12
7 -11 36 5 19 11 33 16 29 10 -3 -5 -2 -10 4 -10 5 0 13 4 16 10 3 6 11 10 16
10 6 0 8 -4 5 -9 -4 -5 4 -7 16 -3 17 4 20 2 15 -11 -4 -11 -1 -17 7 -17 8 0
25 -6 39 -13 24 -13 25 -14 6 -25 -11 -7 -17 -17 -14 -22 7 -12 -23 -40 -43
-40 -14 0 -15 -2 -2 -10 8 -5 11 -12 7 -16 -4 -4 -12 -3 -18 3 -8 8 -17 5 -31
-9 -14 -14 -23 -16 -32 -9 -7 6 -16 7 -20 3 -4 -4 -7 -2 -6 3 5 21 0 36 -10
30 -5 -3 -20 -1 -32 6 -20 10 -18 7 7 -21 27 -29 28 -32 8 -26 -18 6 -22 4
-17 -8 9 -22 -12 -20 -47 5 -16 11 -29 16 -29 11 0 -6 7 -12 15 -16 21 -8 19
-29 -2 -22 -10 3 -25 1 -33 -4 -12 -7 -10 -11 9 -18 22 -8 23 -9 5 -16 -10 -4
-35 -9 -54 -12 -69 -9 -113 -25 -102 -36 8 -8 18 -8 37 0 33 15 48 15 39 0 -4
-7 6 -2 23 10 39 27 47 28 40 1 -5 -20 -5 -20 13 -4 18 16 19 16 17 -3 -1 -15
-7 -19 -27 -17 -14 2 -29 0 -35 -5 -5 -4 -22 -10 -38 -12 -22 -4 -25 -3 -16 9
21 24 -125 -58 -158 -89 -40 -38 -84 -122 -113 -213 -17 -54 -24 -103 -28
-212 l-5 -143 42 0 c70 0 125 -40 155 -112 14 -32 22 -38 68 -48 81 -19 278
-24 366 -10 77 12 205 53 230 73 7 5 10 17 7 26 -3 12 11 24 52 46 31 17 60
31 63 33 4 2 11 -5 14 -15 7 -18 66 -536 66 -581 0 -22 3 -23 73 -22 39 0 152
-2 250 -6 l178 -7 27 -56 c34 -69 57 -86 155 -111 160 -40 299 -54 557 -54
260 1 298 5 500 56 120 31 125 33 178 82 26 24 45 32 90 37 l57 6 -57 2 -58 1
0 43 c0 50 -43 187 -64 202 -7 6 -23 26 -35 45 l-21 35 0 -45 c0 -35 6 -50 29
-75 24 -25 27 -34 20 -54 -6 -15 -15 -22 -27 -19 -14 4 -17 -2 -17 -32 0 -33
-22 -70 -41 -70 -3 0 -4 22 -2 49 l5 50 -28 -14 c-24 -13 -30 -13 -43 1 -9 8
-16 21 -16 28 0 15 35 48 68 65 18 10 22 20 22 59 l0 47 -21 -35 c-41 -68 -90
-88 -124 -50 -14 15 -17 32 -13 82 l4 63 -26 -28 c-24 -28 -25 -32 -16 -88 7
-42 7 -62 -1 -70 -16 -16 -53 -1 -65 27 l-11 24 -18 -30 c-22 -35 -52 -39 -73
-9 -19 27 -13 40 27 64 28 17 29 20 12 23 -30 6 -45 22 -45 47 0 30 21 37 77
25 54 -13 72 -8 104 26 l24 25 -28 -10 c-73 -28 -166 5 -151 53 8 28 32 55 69
77 l30 19 -41 0 c-37 0 -44 -4 -73 -45 -35 -48 -46 -53 -77 -31 -16 12 -17 19
-8 44 l11 29 -38 -10 c-43 -11 -69 2 -69 33 0 31 26 44 69 33 l38 -10 -11 29
c-9 25 -8 32 8 44 31 22 42 17 77 -31 29 -41 36 -45 73 -45 l41 0 -30 19 c-67
41 -85 82 -50 117 26 26 81 32 132 14 l28 -10 -33 30 c-35 33 -48 35 -106 19
-31 -9 -41 -8 -53 4 -21 21 -8 54 25 65 l27 9 -32 19 c-34 20 -43 50 -21 72
21 21 48 13 68 -20 l19 -32 10 26 c18 47 71 47 71 -1 0 -14 -4 -41 -10 -60 -8
-30 -6 -38 19 -67 l29 -32 -5 58 c-8 86 32 142 64 91 11 -17 9 -20 -10 -23
-38 -5 -34 -52 9 -115 53 -76 58 -77 50 -2 l-6 64 19 -35 c10 -19 24 -64 31
-100 6 -36 16 -67 21 -70 5 -3 13 -39 19 -80 5 -41 13 -88 17 -105 l6 -30 8
28 c4 15 13 86 19 158 9 103 9 133 -1 145 -9 11 -9 18 -1 26 12 12 89 -90 392
-516 101 -142 189 -260 196 -263 6 -2 35 -3 64 -1 l52 3 -64 90 c-76 106 -512
728 -581 830 -76 112 -93 129 -124 130 -21 0 -31 7 -42 30 -8 17 -19 33 -25
37 -8 5 -4 21 12 50 22 43 30 108 13 108 -5 0 -11 13 -13 30 -3 16 -1 30 4 30
4 0 8 5 8 10 0 6 -6 10 -13 10 -11 0 -13 55 -10 297 5 360 7 366 100 271 52
-54 203 -259 203 -276 0 -5 -25 -30 -55 -57 -34 -29 -55 -55 -55 -68 0 -52
183 -183 280 -201 52 -10 80 -41 80 -92 0 -99 94 -303 144 -312 9 -2 35 8 57
22 l39 26 47 -66 c27 -37 62 -85 78 -108 l30 -41 3 83 c3 83 3 83 -38 140
l-40 57 52 51 53 50 -59 52 c-55 49 -201 132 -232 132 -19 0 -104 119 -104
146 0 64 -82 255 -119 278 -6 4 -24 -1 -41 -10 -16 -10 -31 -16 -33 -13 -2 2
-27 36 -56 76 -29 40 -79 97 -112 126 l-59 54 76 7 c73 7 78 6 103 -18 32 -31
46 -34 31 -7 -16 30 -12 36 10 16 12 -11 20 -13 20 -6 0 7 11 -1 25 -16 15
-17 24 -23 25 -14 0 10 11 5 32 -15 l31 -29 -28 38 c-15 21 -25 40 -22 43 3 3
13 -6 22 -20 9 -14 32 -35 50 -46 49 -30 54 -24 7 9 -49 36 -59 51 -41 61 8 6
28 -5 57 -31 25 -21 49 -39 54 -39 5 0 -7 14 -27 31 -20 18 -34 33 -32 35 2 3
25 -7 50 -22 26 -14 51 -23 56 -20 5 4 25 -3 43 -14 18 -11 39 -20 46 -20 23
0 -10 26 -64 52 -34 15 -43 24 -31 26 10 2 35 -7 55 -20 48 -32 90 -39 127
-23 22 10 25 14 11 14 -11 1 -16 4 -13 8 12 11 -13 31 -33 26 -12 -3 -20 0
-20 7 0 7 -8 9 -20 5 -28 -9 -25 10 5 23 19 9 23 9 19 -3 -4 -10 3 -13 26 -13
27 1 31 4 26 22 -3 12 -6 25 -6 30 0 5 -7 3 -15 -4 -20 -16 -32 -5 -16 14 15
18 38 11 46 -15 4 -10 11 -19 17 -19 6 0 6 6 -2 15 -7 9 -10 19 -6 23 9 8 36
-26 36 -46 0 -7 5 -10 10 -7 8 5 7 11 0 20 -12 15 -6 35 10 35 5 0 24 -13 42
-29 18 -15 53 -38 78 -51 l44 -22 -16 23 c-8 13 -24 24 -34 25 -25 0 -54 14
-54 24 0 11 66 1 109 -16 45 -19 60 -18 58 5 -1 16 -13 19 -82 24 -44 4 -100
14 -125 22 l-45 15 40 -4 c22 -3 50 -7 61 -10 24 -5 113 -9 129 -6 13 3 -83
20 -112 20 -27 0 -31 17 -5 23 9 2 7 3 -5 1 -13 -2 -34 -7 -48 -10 -20 -5 -24
-3 -19 9 3 9 25 20 47 26 29 6 34 9 17 10 -14 0 -38 -6 -54 -14 -16 -9 -31
-13 -34 -11 -8 9 23 33 38 29 13 -4 13 -3 0 6 -8 6 -23 8 -33 5 -33 -10 -67
-11 -67 -2 0 5 7 11 15 14 8 4 12 10 9 16 -3 5 -15 3 -27 -5 -23 -14 -47 -12
-47 4 0 5 11 9 25 9 27 0 37 6 85 51 60 55 49 170 -20 215 l-39 26 -79 -36
c-44 -20 -84 -36 -90 -36 -10 0 -25 -41 -17 -49 3 -2 50 17 106 43 56 26 108
45 115 42 8 -3 14 -16 14 -28 0 -19 -18 -32 -109 -77 -76 -37 -115 -51 -130
-46 -12 3 -19 11 -15 16 3 6 -5 8 -20 4 -14 -3 -37 -7 -51 -10 -14 -3 -25 -1
-25 5 0 6 5 8 12 4 6 -4 8 -3 4 4 -3 5 -26 20 -51 32 -25 12 -45 26 -45 31 0
16 63 2 77 -17 9 -12 21 -15 45 -11 l33 7 -25 -16 c-14 -9 -17 -13 -7 -10 10
3 26 6 34 6 9 0 13 3 10 7 -4 3 -2 12 4 20 9 10 6 13 -17 13 -33 0 -94 21 -94
32 0 4 -10 8 -22 8 -27 0 -16 12 15 16 12 1 27 3 32 4 6 1 -1 6 -15 12 -21 9
-22 12 -7 15 20 5 22 14 5 31 -7 7 -8 12 -4 12 4 0 15 -8 24 -18 10 -9 14 -13
10 -8 -13 17 -9 29 6 17 16 -14 23 -6 30 32 2 15 7 31 11 37 4 6 -5 10 -19 10
-14 0 -26 5 -26 10 0 14 14 13 53 -3 18 -8 40 -13 50 -11 9 1 17 -2 17 -7 0
-12 32 -49 40 -44 3 2 6 -5 6 -15 0 -16 -3 -17 -16 -6 -8 7 -23 16 -32 19 -10
4 -18 13 -18 21 0 7 -9 16 -21 19 -17 5 -18 3 -7 -10 11 -14 10 -15 -12 -10
-14 4 -19 4 -12 1 6 -3 12 -12 12 -20 0 -9 -5 -12 -11 -8 -18 11 7 -31 28 -46
15 -12 16 -12 6 0 -22 24 -14 34 10 14 20 -17 20 -16 -2 9 -14 15 -21 30 -17
34 4 4 15 -3 25 -16 23 -30 95 -42 84 -15 -4 11 -2 15 4 11 8 -5 7 1 0 18 -7
14 -20 25 -29 25 -10 0 -18 5 -18 10 0 6 8 10 18 11 11 0 7 4 -10 11 -16 5
-28 13 -28 17 0 4 -24 8 -52 10 -55 2 -92 20 -47 22 13 1 29 0 34 -1 33 -8 53
-3 78 17 16 13 33 23 39 23 5 0 -2 14 -17 31 -14 17 -23 34 -20 38 4 3 16 -6
27 -22 21 -29 68 -61 52 -35 -5 7 -9 16 -9 20 0 9 -51 48 -64 48 -6 0 -11 8
-12 18 0 10 -3 12 -6 4 -2 -6 -9 -10 -14 -6 -14 8 12 -48 34 -72 18 -22 18
-22 -5 -23 -13 0 -45 -3 -73 -5 -38 -3 -45 -1 -29 6 21 10 21 10 -9 39 -32 31
-44 64 -27 74 6 4 8 11 5 16 -4 5 2 9 12 9 14 0 15 2 4 9 -7 5 -10 14 -7 20 4
6 11 9 16 6 5 -3 16 5 24 17 19 26 21 47 4 30 -15 -15 -32 -16 -23 -2 12 19
-14 10 -42 -15 -23 -20 -26 -26 -13 -34 8 -6 11 -13 8 -16 -4 -4 -13 -1 -21 6
-13 12 -13 18 6 48 11 19 15 31 9 27 -7 -4 -29 3 -49 15 -20 13 -31 25 -24 27
6 2 19 -2 27 -9 9 -7 36 -14 61 -16 43 -2 45 -1 29 16 -9 10 -13 21 -9 24 3 4
2 7 -4 7 -18 0 -23 -13 -10 -28 11 -14 9 -14 -13 -2 -14 8 -30 14 -36 15 -14
0 -44 31 -44 44 0 6 8 11 18 11 14 0 15 -2 2 -10 -12 -8 -12 -10 5 -10 11 1
28 7 38 14 18 14 18 15 0 24 -10 6 -15 13 -11 17 6 6 31 -11 71 -49 14 -13 17
-21 9 -24 -18 -6 -14 -20 9 -33 15 -8 19 -8 15 0 -5 7 4 11 26 11 25 0 29 3
18 10 -8 5 -10 10 -5 10 6 0 1 6 -10 12 -19 11 -19 11 0 19 15 6 11 8 -17 8
-42 1 -64 21 -23 21 15 0 33 6 41 14 22 22 17 29 -8 12 -33 -23 -45 -19 -15 4
14 11 29 19 34 18 4 -2 19 5 33 16 l25 18 -25 -7 c-14 -4 -38 -16 -53 -27 -32
-22 -43 -19 -29 9 9 16 5 18 -26 21 -20 1 -61 11 -91 23 -54 20 -141 67 -141
76 0 7 43 -8 69 -26 30 -19 148 -61 170 -60 20 1 -11 15 -52 24 -15 3 -25 9
-22 14 6 10 -18 21 -46 21 -24 0 -25 17 -1 24 9 3 -2 3 -24 0 -23 -3 -45 -1
-48 4 -7 12 37 24 58 16 20 -8 78 15 70 27 -3 5 0 9 6 9 6 0 8 5 5 10 -3 6
-31 8 -61 6 -30 -2 -54 0 -54 5 0 15 20 20 40 9 13 -7 20 -7 20 0 0 5 6 10 14
10 11 0 26 20 26 35 0 2 -24 9 -52 15 -53 12 -118 45 -118 59 0 4 -15 7 -34 8
-55 2 -63 13 -30 41 28 24 28 24 2 8 -30 -17 -58 -21 -58 -7 0 5 9 11 21 14
18 5 19 8 9 27 -8 15 -8 20 -1 16 6 -4 16 -4 22 0 8 4 7 9 -2 15 -10 6 -8 9 8
9 12 0 25 5 28 10 3 5 1 10 -5 10 -6 0 -8 4 -5 10 3 6 -3 10 -14 10 -12 0 -21
5 -21 10 0 6 6 10 14 10 8 0 18 5 22 11 4 8 -1 9 -17 4 -13 -4 -25 -12 -27
-16 -5 -13 -72 -11 -72 2 0 6 -7 9 -15 5 -22 -8 -18 2 6 15 12 6 19 7 15 1 -8
-13 36 -24 48 -12 7 7 1 10 -14 10 -24 1 -24 1 5 17 23 13 35 14 59 5 16 -7
32 -9 35 -6 8 7 -29 34 -46 34 -7 0 -13 5 -13 10 0 13 8 13 66 -5 65 -20 73
-19 67 5 -4 16 -14 20 -44 20 -22 0 -39 4 -39 8 0 5 12 8 28 7 16 -1 18 -1 6
2 -12 2 -30 13 -40 24 -9 10 -21 19 -26 19 -28 0 -217 144 -206 156 4 3 26
-12 50 -33 43 -40 162 -116 186 -119 22 -4 2 16 -35 34 -20 9 -35 21 -33 26 1
5 -15 18 -37 29 -34 18 -36 21 -18 28 17 6 15 8 -11 8 -16 1 -39 7 -49 15 -19
13 -17 15 20 22 22 4 34 9 28 11 -21 7 -14 26 7 20 29 -8 13 12 -24 29 l-31
15 45 -5 c39 -4 41 -4 18 5 -16 6 -28 15 -28 20 0 12 43 12 56 -1 7 -7 17 -5
30 5 18 14 14 15 -43 13 -34 -2 -65 0 -69 5 -4 4 1 7 11 7 14 0 15 3 5 15 -7
8 -22 13 -34 11 -11 -2 -15 -1 -8 1 15 6 15 16 0 31 -9 9 -9 12 0 12 7 0 12
-4 12 -9 0 -13 73 -6 78 8 2 6 19 11 37 11 l34 0 -25 27 c-13 14 -22 29 -18
32 3 3 14 -5 25 -19 14 -17 22 -21 26 -12 2 6 18 12 34 12 l30 0 -31 30 c-37
36 -53 40 -20 5 16 -17 19 -25 9 -25 -16 0 -71 55 -63 63 3 3 13 4 22 1 10 -3
7 1 -6 7 -13 7 -20 18 -17 26 3 7 8 21 11 31 5 15 4 15 -5 1 -11 -16 -66 -15
-77 2 -3 5 -15 9 -27 10 -12 0 -16 3 -9 6 6 2 12 9 12 15 0 7 -22 9 -60 6 -55
-4 -78 3 -47 15 9 4 9 6 -1 6 -7 1 -11 4 -9 9 3 4 -14 6 -36 5 -45 -1 -61 11
-47 38 5 9 6 19 3 23 -10 9 6 7 28 -4 10 -6 19 -8 19 -6 0 3 -14 13 -31 22
-17 8 -28 11 -25 5 4 -6 1 -11 -6 -11 -10 0 -9 -3 2 -11 12 -8 12 -10 1 -7 -8
2 -16 13 -17 24 -3 16 3 20 26 22 17 1 43 -5 58 -14 18 -11 21 -11 10 -1 -24
19 -23 30 2 17 10 -6 36 -12 57 -14 21 -2 47 -7 58 -10 l20 -7 -20 11 c-11 5
-33 15 -50 21 -22 9 -25 13 -13 16 9 2 30 -3 47 -11 37 -20 67 -20 74 -2 7 17
-13 26 -60 26 l-36 0 22 19 c30 26 20 56 -25 73 -18 6 -34 16 -34 20 0 4 -11
8 -25 8 -14 0 -25 4 -25 9 0 5 -9 13 -20 16 -11 3 -20 13 -20 21 0 11 -6 13
-20 9 -11 -4 -20 -2 -20 4 0 6 3 10 8 10 4 -1 18 -1 32 0 l25 1 -25 13 c-14 7
-26 9 -28 5 -5 -11 -40 -10 -47 2 -3 6 3 10 13 10 36 0 35 49 0 50 -5 0 -8 4
-8 9 0 5 21 9 48 9 26 0 55 3 65 7 16 7 17 9 2 32 -26 39 -10 38 37 -3 43 -38
43 -38 13 -4 -16 19 -39 42 -50 52 -17 15 -17 17 -4 18 9 0 22 -7 29 -16 8 -8
23 -20 34 -25 12 -7 9 -1 -9 14 -31 26 -29 35 20 66 20 12 9 11 -30 -5 -8 -3
-15 -1 -15 4 0 6 9 14 20 17 11 3 20 10 20 13 0 8 -94 32 -125 32 -17 0 -16 3
9 25 16 14 23 25 16 25 -7 0 -10 3 -7 7 8 7 -38 33 -62 33 -9 1 -3 7 14 16 17
8 23 12 14 10 -29 -8 -43 9 -29 35 18 34 1 16 -26 -28 -13 -21 -24 -31 -24
-23 0 9 6 22 13 29 10 11 10 13 0 7 -8 -4 -13 -2 -13 6 0 8 -5 6 -11 -5 -6 -9
-14 -15 -18 -12 -5 2 -11 -4 -14 -15 -6 -24 -22 -26 -31 -4 -3 8 -2 13 3 10
10 -7 23 19 14 28 -3 3 -23 -4 -44 -14 -57 -30 -92 -25 -51 7 11 8 3 7 -20 -4
-42 -18 -62 -11 -32 12 19 15 19 15 -1 9 -20 -6 -20 -5 -1 10 19 16 19 16 -5
16 -19 0 -21 2 -9 10 9 6 10 10 3 10 -6 0 -15 -4 -18 -10 -7 -12 -65 -13 -65
-2 0 5 10 14 23 20 20 10 20 11 -12 11 -42 1 -31 17 16 24 24 4 37 -1 54 -19
12 -13 26 -24 29 -24 4 0 -7 15 -24 34 -17 18 -34 29 -37 23 -4 -5 -12 -1 -18
11 -15 29 -14 37 5 21 13 -10 17 -10 24 1 6 9 3 18 -8 27 -26 19 -8 15 50 -11
57 -25 143 -84 135 -92 -3 -3 -35 15 -73 40 -83 56 -103 59 -72 11 13 -19 27
-35 32 -35 5 0 1 9 -9 20 -10 11 -14 20 -8 20 5 0 18 -9 28 -20 10 -11 23 -19
29 -18 6 2 26 -8 44 -20 18 -14 32 -18 32 -12 0 7 8 10 20 7 11 -3 18 -1 14 4
-3 5 0 9 5 9 30 0 4 20 -51 40 -82 30 -143 91 -85 85 12 -1 14 0 4 2 -9 2 -15
8 -13 12 3 4 -1 8 -9 8 -8 0 -15 -4 -15 -8 0 -3 -14 -9 -32 -11 l-32 -5 30 25
29 24 -32 -18 c-36 -20 -57 -12 -27 11 10 8 14 15 7 15 -6 0 -15 -4 -18 -10
-8 -13 -42 -13 -50 1 -4 6 -1 9 6 8 8 -2 25 1 38 5 18 6 21 10 10 17 -21 13
-42 11 -36 -5 4 -10 0 -12 -15 -8 -20 5 -20 5 3 23 19 15 20 19 7 19 -25 0
-49 -11 -42 -21 3 -5 -2 -6 -10 -3 -9 3 -16 1 -16 -5 0 -6 -8 -3 -18 7 -19 17
-19 32 -1 32 6 0 7 -4 4 -10 -8 -13 1 -13 26 0 10 6 19 17 19 25 0 18 -5 18
-30 5 -13 -7 -19 -6 -24 6 -3 9 -4 20 0 25 3 5 0 9 -7 9 -7 0 -5 8 6 20 18 20
18 21 0 14 -15 -6 -15 -4 4 15 19 19 25 21 32 10 6 -9 7 -5 3 14 -4 17 -2 27
5 27 6 0 11 -5 11 -12 0 -9 3 -9 12 0 7 7 17 12 23 12 5 0 3 -5 -5 -10 -8 -5
-10 -10 -4 -10 7 0 14 -8 16 -18 3 -10 13 -19 22 -19 14 0 13 4 -6 24 -12 13
-16 23 -10 23 7 0 12 -4 12 -9 0 -5 17 -7 38 -4 21 3 56 -2 82 -11 57 -20 59
-20 57 4 -1 18 -8 20 -67 20 -36 0 -87 7 -115 14 l-50 14 79 -5 c62 -5 77 -4
71 6 -4 8 -18 11 -36 7 -17 -3 -29 -1 -29 5 0 6 -9 8 -20 4 -12 -4 -26 0 -36
9 -14 15 -14 17 0 22 9 3 13 10 10 16 -3 5 -12 7 -20 4 -8 -3 -21 -3 -29 1
-14 5 -14 8 2 27 16 19 16 19 1 7 -20 -15 -25 -2 -6 17 9 9 9 15 0 24 -13 13
-12 14 -34 -32 -16 -33 -17 -34 -24 -12 -3 12 -11 22 -16 22 -5 0 -7 -4 -4 -8
3 -5 -1 -9 -9 -9 -18 0 -18 -1 -4 33 10 28 10 28 -10 10 -11 -10 -18 -24 -14
-30 3 -6 0 -6 -7 1 -11 10 -10 16 5 33 16 18 17 23 5 30 -9 6 -17 5 -22 -3
-10 -16 -22 -1 -14 19 4 10 12 14 23 10 10 -4 14 -4 11 0 -4 3 -1 13 7 21 8 8
15 19 15 26 0 6 -7 2 -15 -9 -15 -18 -15 -17 -10 19 5 39 -2 46 -24 25 -11
-11 -13 -10 -8 4 3 10 2 20 -2 23 -5 3 -7 14 -4 25 4 13 -1 26 -13 34 -10 8
-23 35 -29 60 l-10 46 -39 -105z m102 -124 c10 -6 9 -10 -7 -14 -14 -3 -21 0
-21 9 0 16 9 18 28 5z m-108 -112 c0 -5 -6 -8 -12 -6 -8 1 -13 -9 -12 -25 0
-29 -10 -36 -22 -16 -4 6 -2 14 5 16 8 3 6 8 -6 18 -17 13 -17 14 1 7 11 -4
17 -2 13 3 -3 6 3 11 14 11 10 1 19 -2 19 -8z m106 -46 c-11 -11 -17 4 -9 23
7 18 8 18 11 1 2 -10 1 -21 -2 -24z m144 -83 c0 -5 -7 -10 -16 -10 -8 0 -12 5
-9 10 3 6 10 10 16 10 5 0 9 -4 9 -10z m-435 -30 c-3 -5 -10 -10 -16 -10 -5 0
-9 5 -9 10 0 6 7 10 16 10 8 0 12 -4 9 -10z m375 -150 c0 -5 -4 -10 -10 -10
-5 0 -10 5 -10 10 0 6 5 10 10 10 6 0 10 -4 10 -10z m-12 -70 c-1 -16 -5 -30
-10 -30 -4 0 -8 4 -8 9 0 5 -9 13 -20 16 -11 4 -17 11 -14 17 4 6 10 6 17 -1
21 -21 29 -11 12 15 -16 25 -16 25 4 15 13 -8 19 -21 19 -41z m48 -9 c-3 -5 1
-14 9 -21 8 -7 15 -20 15 -29 0 -9 7 -25 15 -35 8 -11 15 -24 15 -30 0 -6 -8
1 -17 14 -9 14 -19 27 -22 30 -3 3 -14 19 -23 37 -12 23 -13 33 -5 37 18 7 19
7 13 -3z m76 -40 c18 -16 31 -32 28 -34 -3 -3 -23 10 -44 29 -22 19 -34 34
-28 34 7 0 26 -13 44 -29z m-118 -7 c4 -10 1 -14 -6 -12 -15 5 -23 28 -10 28
5 0 13 -7 16 -16z m36 -8 c0 -22 33 -76 47 -76 6 0 15 5 18 10 7 11 25 4 25
-10 0 -10 -71 -32 -79 -25 -2 3 1 5 7 5 7 0 12 5 12 11 0 6 -7 8 -17 4 -14 -5
-15 -3 -6 5 13 15 -15 49 -34 42 -7 -2 -13 1 -13 7 0 6 7 11 15 11 9 0 12 6 9
15 -4 8 -1 15 5 15 6 0 11 -6 11 -14z m75 -24 c-6 -7 -35 18 -35 31 0 5 9 2
20 -8 11 -10 18 -20 15 -23z m-509 -7 c-2 -7 1 -18 7 -24 8 -8 8 -11 -2 -11
-7 0 -10 -4 -7 -9 7 -10 -6 -9 -41 3 -13 4 -23 12 -23 18 0 5 7 7 15 4 8 -3
22 -9 30 -12 8 -3 15 -1 15 6 0 6 -4 9 -9 5 -5 -3 -13 0 -17 6 -4 7 -3 9 4 5
6 -3 13 -2 16 3 4 5 2 12 -4 16 -5 3 -10 11 -10 17 0 6 6 6 15 -2 9 -7 14 -19
11 -25z m624 23 c0 -11 -12 -10 -30 2 -12 7 -10 9 8 7 12 0 22 -5 22 -9z
m-796 -14 c9 -3 16 -10 16 -14 0 -10 -38 -1 -46 11 -6 10 7 12 30 3z m101 -4
c3 -5 2 -10 -4 -10 -5 0 -13 5 -16 10 -3 6 -2 10 4 10 5 0 13 -4 16 -10z m-95
-40 c0 -5 -2 -10 -4 -10 -3 0 -8 5 -11 10 -3 6 -1 10 4 10 6 0 11 -4 11 -10z
m600 6 c0 -2 -7 -9 -15 -16 -12 -10 -15 -10 -15 4 0 9 7 16 15 16 8 0 15 -2
15 -4z m-643 -112 c-3 -3 -12 -4 -19 -1 -8 3 -5 6 6 6 11 1 17 -2 13 -5z m772
-3 c9 -6 10 -11 2 -15 -6 -4 -11 -3 -11 2 0 6 -10 8 -22 4 -14 -3 -19 -2 -14
6 8 14 26 15 45 3z m13 -43 c-7 -7 -12 -8 -12 -2 0 14 12 26 19 19 2 -3 -1
-11 -7 -17z m-862 2 c0 -5 -7 -7 -15 -4 -8 4 -15 8 -15 10 0 2 7 4 15 4 8 0
15 -4 15 -10z m353 -10 c3 -11 1 -20 -4 -20 -5 0 -9 2 -9 4 0 2 -3 11 -6 20
-3 9 -2 16 4 16 5 0 12 -9 15 -20z m737 -10 c0 -5 -5 -10 -11 -10 -5 0 -7 5
-4 10 3 6 8 10 11 10 2 0 4 -4 4 -10z m-140 -10 c0 -5 -4 -10 -10 -10 -5 0
-10 5 -10 10 0 6 5 10 10 10 6 0 10 -4 10 -10z m195 -20 c3 -6 -1 -7 -9 -4
-18 7 -21 14 -7 14 6 0 13 -4 16 -10z m45 -5 c7 -8 8 -15 2 -15 -5 0 -15 7
-22 15 -7 8 -8 15 -2 15 5 0 15 -7 22 -15z m-817 -15 c3 -11 0 -20 -6 -20 -6
0 -7 -3 -4 -7 4 -3 1 -13 -6 -22 -11 -14 -10 -14 6 -2 9 8 21 10 25 6 4 -4 1
-10 -7 -13 -21 -7 -72 -58 -65 -65 10 -9 46 12 39 23 -3 5 4 14 15 20 11 6 20
8 20 5 0 -12 -23 -48 -48 -77 -15 -16 -30 -39 -35 -50 -7 -19 -6 -19 9 -7 10
8 20 12 23 10 3 -2 8 3 12 10 32 71 54 110 57 101 2 -6 -9 -34 -23 -62 -15
-29 -24 -54 -21 -57 3 -3 11 7 18 23 7 15 22 38 33 50 l20 22 0 -37 c-1 -65
-26 -110 -75 -138 -48 -28 -70 -29 -104 -2 -77 60 -77 178 0 238 15 12 33 21
40 21 8 0 14 9 14 19 0 34 55 43 63 11z m-313 -20 c0 -5 -2 -10 -4 -10 -3 0
-8 5 -11 10 -3 6 -1 10 4 10 6 0 11 -4 11 -10z m-47 -27 c-7 -2 -19 -2 -25 0
-7 3 -2 5 12 5 14 0 19 -2 13 -5z m87 -13 c0 -5 -4 -10 -10 -10 -5 0 -10 5
-10 10 0 6 5 10 10 10 6 0 10 -4 10 -10z m769 -36 c11 7 61 -39 61 -56 0 -5
-9 -18 -19 -30 -11 -11 -17 -27 -14 -35 5 -14 3 -14 -18 0 -13 8 -35 18 -49
22 -22 7 -23 6 -11 -9 12 -14 12 -16 -3 -10 -13 5 -16 14 -12 30 4 14 2 24 -4
24 -5 0 -10 8 -10 17 0 13 3 14 12 5 18 -18 33 -15 18 3 -11 13 -10 19 6 34
11 11 22 14 25 8 4 -5 12 -6 18 -3z m251 -14 c0 -5 -4 -10 -10 -10 -5 0 -10 5
-10 10 0 6 5 10 10 10 6 0 10 -4 10 -10z m-110 -51 c0 -21 -4 -39 -10 -39 -5
0 -10 21 -10 46 0 27 4 43 10 39 6 -3 10 -24 10 -46z m250 31 c0 -5 -4 -10 -9
-10 -6 0 -13 5 -16 10 -3 6 1 10 9 10 9 0 16 -4 16 -10z m-700 -20 c0 -5 -4
-10 -10 -10 -5 0 -10 5 -10 10 0 6 5 10 10 10 6 0 10 -4 10 -10z m46 -25 c0
-38 -11 -46 -21 -15 -5 15 4 37 21 50 0 0 0 -16 0 -35z m454 20 c0 -8 -2 -15
-4 -15 -2 0 -6 7 -10 15 -3 8 -1 15 4 15 6 0 10 -7 10 -15z m-286 -10 c-7 -16
-24 -21 -24 -6 0 8 7 13 27 20 1 1 0 -6 -3 -14z m333 -7 c-3 -8 -6 -5 -6 6 -1
11 2 17 5 13 3 -3 4 -12 1 -19z m-397 2 c0 -5 -4 -10 -10 -10 -5 0 -10 5 -10
10 0 6 5 10 10 10 6 0 10 -4 10 -10z m476 -13 c8 3 14 0 14 -7 0 -6 -5 -8 -11
-4 -8 4 -9 0 -4 -15 4 -14 2 -21 -7 -22 -7 0 -24 -2 -38 -5 -19 -3 -21 -2 -10
6 8 5 24 10 35 10 15 0 16 3 7 12 -7 7 -11 21 -11 33 1 16 2 16 6 3 2 -10 10
-15 19 -11z m-39 -2 c9 -25 -4 -29 -17 -6 -7 15 -7 21 0 21 6 0 13 -7 17 -15z
m-1177 -5 c0 -5 -5 -10 -11 -10 -5 0 -7 5 -4 10 3 6 8 10 11 10 2 0 4 -4 4
-10z m1100 0 c0 -5 -8 -10 -17 -10 -15 0 -16 2 -3 10 19 12 20 12 20 0z m168
-15 c17 -37 15 -41 -8 -12 -22 27 -25 37 -12 37 5 0 14 -11 20 -25z m-1303 5
c3 -5 -1 -10 -9 -10 -9 0 -16 5 -16 10 0 6 4 10 9 10 6 0 13 -4 16 -10z m1108
-17 c-7 -2 -13 -13 -13 -24 0 -10 6 -19 13 -20 6 0 -21 -16 -62 -35 -49 -22
-78 -31 -84 -25 -11 11 24 46 56 56 9 4 17 15 17 25 0 14 9 20 33 23 48 6 53
6 40 0z m62 -23 c-3 -5 -14 -10 -23 -10 -15 0 -15 2 -2 10 20 13 33 13 25 0z
m-450 -45 c24 -2 44 -18 49 -41 4 -14 11 -22 17 -18 6 3 5 -3 -2 -14 -8 -12
-19 -18 -28 -14 -13 5 -13 3 2 -12 21 -21 22 -27 2 -20 -9 4 -15 0 -15 -10 0
-19 -2 -19 -33 -5 -21 9 -51 65 -52 94 0 6 -4 14 -10 18 -6 5 0 7 13 4 17 -4
22 -2 18 8 -6 17 4 27 18 17 6 -3 16 -7 21 -7z m-701 -10 c-7 -16 -24 -21 -24
-6 0 8 7 13 27 20 1 1 0 -6 -3 -14z m1206 -5 c0 -5 -7 -10 -16 -10 -8 0 -12 5
-9 10 3 6 10 10 16 10 5 0 9 -4 9 -10z m-62 -27 c3 -19 -10 -29 -87 -68 -86
-43 -113 -53 -98 -38 4 3 0 15 -10 25 -25 28 -6 34 24 7 20 -17 23 -18 10 -3
-9 11 -17 25 -17 30 0 12 141 74 160 71 8 -1 16 -12 18 -24z m-1088 -62 c0 -6
-4 -13 -10 -16 -5 -3 -10 1 -10 9 0 9 5 16 10 16 6 0 10 -4 10 -9z m1197 -17
c-7 -7 -37 7 -37 17 0 6 9 5 21 -1 11 -7 19 -14 16 -16z m-1237 12 c0 -3 -4
-8 -10 -11 -5 -3 -10 -1 -10 4 0 6 5 11 10 11 6 0 10 -2 10 -4z m1085 -56
c-30 -32 -82 -53 -115 -48 -15 2 0 14 52 40 88 46 100 47 63 8z m-185 -1 c0
-6 -4 -7 -10 -4 -5 3 -10 11 -10 16 0 6 5 7 10 4 6 -3 10 -11 10 -16z m25 11
c3 -5 1 -10 -4 -10 -6 0 -11 5 -11 10 0 6 2 10 4 10 3 0 8 -4 11 -10z m329
-27 c-5 -5 -12 -12 -16 -18 -4 -6 -8 -2 -8 8 0 9 7 17 17 17 9 0 12 -3 7 -7z
m-1180 -63 c9 -22 16 -42 16 -44 0 -6 -50 6 -50 13 0 3 -4 12 -9 20 -8 12 -12
12 -25 2 -9 -8 -16 -10 -16 -6 0 10 49 55 59 55 5 0 16 -18 25 -40z m216 35
c0 -2 -9 -19 -20 -37 l-20 -33 0 32 c0 28 9 40 33 42 4 1 7 -1 7 -4z m-330
-81 c0 -8 -5 -12 -10 -9 -6 4 -8 11 -5 16 9 14 15 11 15 -7z m40 12 c0 -3 -4
-8 -10 -11 -5 -3 -10 -1 -10 4 0 6 5 11 10 11 6 0 10 -2 10 -4z m1180 -58 c0
-14 -10 -9 -38 18 l-27 25 32 -18 c18 -10 33 -21 33 -25z m-480 6 c0 -8 -4
-12 -10 -9 -5 3 -10 10 -10 16 0 5 5 9 10 9 6 0 10 -7 10 -16z m-780 -8 c0
-14 -29 -31 -38 -21 -6 6 18 35 29 35 5 0 9 -6 9 -14z m40 -16 c12 -8 11 -10
-7 -10 -13 0 -23 5 -23 10 0 13 11 13 30 0z m362 -2 c37 -1 68 -16 68 -31 0
-7 -115 -1 -128 7 -6 3 -9 13 -6 21 4 8 10 13 14 10 5 -3 28 -6 52 -7z m537
-17 c8 -11 20 -17 28 -14 7 3 13 0 13 -6 0 -6 -4 -11 -9 -11 -5 0 -7 -10 -3
-22 5 -21 4 -22 -11 -9 -9 7 -17 20 -17 29 0 8 -7 24 -17 34 -9 10 -12 18 -7
18 5 0 16 -9 23 -19z m186 9 c3 -6 -1 -7 -9 -4 -18 7 -21 14 -7 14 6 0 13 -4
16 -10z m35 0 c0 -5 -2 -10 -4 -10 -3 0 -8 5 -11 10 -3 6 -1 10 4 10 6 0 11
-4 11 -10z m-1056 -19 c15 -2 -16 -31 -33 -31 -9 0 -22 9 -28 19 -11 18 -9 19
20 16 18 -2 36 -4 41 -4z m692 -2 c3 -6 1 -15 -6 -19 -17 -11 -50 0 -50 16 0
17 46 19 56 3z m134 -21 c0 -6 -7 -5 -15 2 -8 7 -15 17 -15 22 0 6 7 5 15 -2
8 -7 15 -17 15 -22z m164 6 c7 -17 -6 -18 -22 -2 -7 7 -12 15 -12 20 0 12 28
-2 34 -18z m-94 -5 c0 -11 -4 -18 -10 -14 -5 3 -7 12 -3 20 7 21 13 19 13 -6z
m50 -9 c0 -17 -15 -11 -28 11 -12 19 -11 19 8 9 11 -6 20 -15 20 -20z m200 20
c0 -5 -5 -10 -11 -10 -5 0 -7 5 -4 10 3 6 8 10 11 10 2 0 4 -4 4 -10z m100
-10 c0 -5 -7 -10 -16 -10 -8 0 -12 5 -9 10 3 6 10 10 16 10 5 0 9 -4 9 -10z
m-1190 -14 c0 -18 28 -40 54 -43 107 -13 104 -11 115 -64 6 -28 11 -58 11 -68
0 -10 9 -22 21 -27 16 -7 3 -9 -47 -8 -46 1 -52 0 -19 -3 72 -6 76 -19 11 -33
-55 -11 -103 -10 -138 5 -22 9 -22 6 -2 55 9 23 15 43 12 45 -2 2 -17 -8 -34
-23 l-29 -27 -23 48 c-13 26 -28 47 -33 47 -5 0 2 -17 16 -37 14 -21 25 -47
25 -58 -1 -16 -7 -13 -38 22 -39 42 -60 92 -58 134 1 21 5 24 38 21 23 -2 46
3 60 12 28 20 58 21 58 2z m983 -1 c-3 -9 -8 -14 -10 -11 -3 3 -2 9 2 15 9 16
15 13 8 -4z m227 -5 c0 -5 -5 -10 -11 -10 -5 0 -7 5 -4 10 3 6 8 10 11 10 2 0
4 -4 4 -10z m-270 -4 c0 -2 -7 -9 -15 -16 -13 -11 -14 -10 -9 4 5 14 24 23 24
12z m350 0 c0 -2 -9 -6 -20 -9 -11 -3 -20 -1 -20 4 0 5 9 9 20 9 11 0 20 -2
20 -4z m-755 -36 c3 -5 1 -10 -4 -10 -6 0 -11 5 -11 10 0 6 2 10 4 10 3 0 8
-4 11 -10z m370 -8 c-3 -3 -11 0 -18 7 -9 10 -8 11 6 5 10 -3 15 -9 12 -12z
m-679 -9 c7 -10 14 -28 14 -41 0 -23 0 -23 -24 5 -13 15 -21 33 -19 40 7 17
13 16 29 -4z m635 -6 c-10 -9 -11 -8 -5 6 3 10 9 15 12 12 3 -3 0 -11 -7 -18z
m489 -7 c0 -5 -4 -10 -10 -10 -5 0 -10 5 -10 10 0 6 5 10 10 10 6 0 10 -4 10
-10z m67 -15 c-4 -8 -11 -15 -17 -15 -6 0 -6 7 2 20 14 22 24 19 15 -5z
m-1607 -20 c12 -14 10 -15 -13 -11 -14 2 -27 0 -30 -7 -2 -6 -9 -7 -16 -3 -9
6 -7 12 11 21 31 17 34 17 48 0z m1530 4 c0 -5 5 -7 10 -4 23 14 120 -32 120
-58 0 -6 -8 -3 -18 6 -10 10 -26 17 -35 17 -9 0 -17 4 -17 8 0 4 -12 7 -27 6
-15 0 -33 5 -40 12 -16 15 -17 24 -3 24 6 0 10 -5 10 -11z m-860 -9 c0 -5 -4
-10 -10 -10 -5 0 -10 5 -10 10 0 6 5 10 10 10 6 0 10 -4 10 -10z m110 0 c0 -5
-4 -10 -10 -10 -5 0 -10 5 -10 10 0 6 5 10 10 10 6 0 10 -4 10 -10z m649 -21
c5 7 17 11 27 9 17 -3 16 -6 -8 -22 -26 -17 -27 -17 -46 2 -11 11 -17 23 -14
27 4 3 12 -2 20 -12 10 -14 14 -15 21 -4z m-1412 -10 c-13 -8 -15 -14 -7 -29
7 -13 7 -21 0 -25 -6 -3 -14 4 -19 17 -9 23 8 48 33 48 6 0 3 -5 -7 -11z
m1578 -16 c3 -10 6 -20 5 -22 -1 -2 4 -8 12 -12 10 -7 9 -9 -4 -9 -11 0 -18 8
-18 20 0 11 -4 20 -10 20 -5 0 -10 5 -10 10 0 17 17 11 25 -7z m-1615 -13 c0
-5 -7 -6 -17 -3 -11 4 -14 3 -9 -5 4 -7 2 -12 -3 -12 -14 0 -14 13 1 28 12 12
28 7 28 -8z m60 -2 c0 -17 3 -19 9 -9 6 10 10 10 16 1 13 -21 -11 -33 -29 -15
-18 18 -22 45 -6 45 6 0 10 -10 10 -22z m1536 0 c7 -11 -37 -10 -56 2 -10 6
-5 9 18 8 18 -1 35 -5 38 -10z m-1686 -8 c12 -8 11 -10 -7 -10 -13 0 -23 5
-23 10 0 13 11 13 30 0z m82 -28 c-2 -7 -11 -11 -19 -8 -8 3 -21 6 -29 6 -8 0
-14 4 -14 8 0 5 15 8 34 8 23 -1 32 -5 28 -14z m107 -28 c10 -9 -6 -11 -41 -6
-21 2 -38 8 -38 14 0 8 68 1 79 -8z m5 -39 c-4 -8 -13 -15 -21 -15 -13 0 -13
3 -3 15 7 8 16 15 21 15 5 0 6 -7 3 -15z m346 3 c0 -9 3 -9 11 -1 6 6 19 8 30
6 14 -4 16 -9 9 -23 -13 -25 -13 -39 1 -20 8 12 9 10 7 -10 -4 -31 -45 -54
-67 -37 -12 9 -13 9 -7 0 4 -7 2 -13 -3 -13 -6 0 -11 14 -11 30 0 34 -6 37
-32 13 -17 -15 -18 -15 -13 -1 4 9 20 22 37 29 17 7 26 15 20 17 -17 5 -15 22
3 22 8 0 15 -5 15 -12z m1015 -8 c3 -5 1 -10 -4 -10 -6 0 -11 5 -11 10 0 6 2
10 4 10 3 0 8 -4 11 -10z m45 -10 c0 -5 -2 -10 -4 -10 -3 0 -8 5 -11 10 -3 6
-1 10 4 10 6 0 11 -4 11 -10z m-1409 -33 c-1 -12 -15 -9 -19 4 -3 6 1 10 8 8
6 -3 11 -8 11 -12z m1304 -18 c9 -13 -3 -59 -15 -59 -14 0 -32 39 -26 56 6 16
32 19 41 3z m-40 -59 c4 -6 1 -17 -5 -25 -10 -13 -16 -12 -42 1 -28 15 -29 16
-13 34 18 20 45 15 60 -10z m109 14 c9 -23 8 -24 -21 -35 -40 -15 -56 6 -23
31 31 24 36 24 44 4z m71 -4 c3 -5 -3 -10 -14 -10 -12 0 -21 5 -21 10 0 6 6
10 14 10 8 0 18 -4 21 -10z m-1750 -40 c4 -7 -3 -8 -22 -4 -38 9 -42 14 -10
14 14 0 29 -5 32 -10z m1655 -10 c21 0 35 -9 50 -31 12 -16 20 -32 17 -35 -2
-3 -14 10 -26 28 -11 18 -21 26 -21 18 0 -9 5 -21 12 -28 9 -9 9 -15 0 -24
-10 -10 -14 -8 -18 9 -3 12 -16 24 -27 27 -33 9 -36 8 -30 -14 3 -13 0 -20 -9
-20 -10 0 -13 11 -10 41 3 30 8 39 19 35 8 -3 27 -6 43 -6z m-131 -33 c16 -20
-10 -30 -44 -17 -28 10 -31 20 -13 38 12 12 36 3 57 -21z m58 -9 c-3 -8 -6 -5
-6 6 -1 11 2 17 5 13 3 -3 4 -12 1 -19z m63 -18 c0 -5 -4 -10 -10 -10 -5 0
-10 5 -10 10 0 6 5 10 10 10 6 0 10 -4 10 -10z m34 -41 c-10 -16 -24 -9 -24
12 0 18 2 19 15 9 8 -7 12 -16 9 -21z m-34 11 c0 -5 -6 -10 -14 -10 -8 0 -22
-7 -31 -16 -9 -9 -19 -14 -22 -10 -8 8 36 46 54 46 7 0 13 -4 13 -10z m131 -1
c11 -5 16 -15 13 -21 -5 -8 -1 -9 10 -5 9 4 15 3 12 -2 -3 -5 1 -12 10 -15 8
-3 12 -10 9 -16 -10 -16 -25 -12 -25 6 0 10 -5 14 -16 10 -8 -3 -12 -2 -9 4 3
5 -3 15 -15 22 -34 22 -25 37 11 17z m-298 -45 c-5 -15 -30 -18 -57 -8 -20 8
-20 18 0 38 14 14 17 14 39 0 14 -9 21 -22 18 -30z m257 36 c0 -5 -4 -10 -10
-10 -5 0 -10 5 -10 10 0 6 5 10 10 10 6 0 10 -4 10 -10z m-1653 -18 c8 -5 8
-14 -3 -32 l-15 -25 4 27 c2 15 -1 29 -7 32 -6 2 -6 5 -1 5 6 0 15 -3 22 -7z
m99 -19 c-10 -10 -19 5 -10 18 6 11 8 11 12 0 2 -7 1 -15 -2 -18z m-176 8 c0
-16 -28 -20 -34 -5 -4 9 1 14 14 14 11 0 20 -4 20 -9z m154 -34 c-5 -9 -4 -9
7 1 19 17 29 15 29 -8 0 -15 7 -20 24 -20 48 0 38 -20 -11 -22 -36 -1 -40 -2
-15 -5 17 -2 32 -9 32 -15 0 -6 -13 -8 -30 -6 -17 3 -33 1 -36 -4 -5 -8 20
-12 69 -9 15 0 27 -4 27 -10 0 -8 -17 -9 -52 -5 -29 3 -60 6 -68 6 -13 0 -13
1 0 10 9 6 10 10 3 10 -10 0 -43 -26 -43 -35 0 -1 7 -2 16 -1 9 0 19 -6 22
-14 5 -13 3 -13 -11 -1 -10 7 -17 10 -17 7 0 -4 -10 -1 -22 6 -13 7 -27 13
-33 14 -24 3 -26 5 -18 16 4 7 6 25 4 40 -1 14 2 29 8 33 6 3 11 -2 11 -12 0
-15 2 -16 11 -3 8 12 9 8 5 -15 l-5 -30 14 33 c17 35 30 43 22 12 -8 -32 3
-23 15 13 12 32 12 32 19 7 6 -21 7 -19 8 15 1 32 4 37 12 22 5 -9 7 -23 3
-30z m1506 28 c-7 -8 -17 -12 -22 -9 -6 4 -5 10 3 15 22 14 33 10 19 -6z
m-1616 -13 c-6 -4 -14 -16 -19 -27 -7 -18 -8 -19 -12 -2 -4 14 -8 16 -19 6 -8
-6 -18 -9 -21 -5 -10 9 19 27 34 21 6 -2 17 3 24 11 6 8 14 12 18 9 3 -3 1 -9
-5 -13z m436 8 c0 -5 -4 -10 -10 -10 -5 0 -10 5 -10 10 0 6 5 10 10 10 6 0 10
-4 10 -10z m1250 -20 c0 -16 -19 -21 -37 -11 -16 9 -15 10 7 11 19 0 21 3 11
9 -8 5 -21 7 -30 4 -13 -4 -14 -3 -2 5 16 11 51 -1 51 -18z m-1770 1 c0 -22
-17 -37 -28 -26 -4 4 -2 10 5 12 7 2 9 11 6 19 -3 8 0 14 6 14 6 0 11 -9 11
-19z m260 9 c0 -5 7 -7 16 -3 12 4 15 2 12 -8 -2 -8 -14 -15 -26 -17 -17 -3
-22 2 -22 17 0 12 5 21 10 21 6 0 10 -4 10 -10z m330 -14 c0 -3 -4 -8 -10 -11
-5 -3 -10 -1 -10 4 0 6 5 11 10 11 6 0 10 -2 10 -4z m1230 -20 c0 -8 4 -16 9
-18 15 -5 1 -53 -20 -66 -16 -10 -19 -9 -19 4 0 8 4 13 9 10 5 -3 11 0 14 8 7
17 -19 30 -29 14 -4 -7 -10 -5 -16 6 -6 10 -7 21 -3 24 4 4 10 2 12 -5 7 -20
34 -3 28 18 -4 11 -2 19 4 19 6 0 11 -6 11 -14z m-1290 -6 c0 -5 -5 -10 -11
-10 -5 0 -7 5 -4 10 3 6 8 10 11 10 2 0 4 -4 4 -10z m1380 0 c0 -5 -4 -10 -10
-10 -5 0 -10 5 -10 10 0 6 5 10 10 10 6 0 10 -4 10 -10z m-1560 -10 c0 -5 -4
-10 -10 -10 -5 0 -10 5 -10 10 0 6 5 10 10 10 6 0 10 -4 10 -10z m40 0 c0 -5
-5 -10 -11 -10 -5 0 -7 5 -4 10 3 6 8 10 11 10 2 0 4 -4 4 -10z m-340 -39 c-6
-12 -15 -21 -20 -21 -10 0 -3 28 14 49 15 19 20 -3 6 -28z m294 -13 c-5 -7
-11 -2 -17 13 -5 14 -11 19 -14 12 -3 -7 -9 -13 -14 -13 -5 0 -4 8 2 19 12 18
12 18 31 -1 10 -10 16 -24 12 -30z m186 24 c0 -14 -7 -19 -27 -17 -40 2 -42
30 -3 33 23 2 30 -2 30 -16z m507 -9 c17 -17 20 -27 13 -50 -4 -15 -9 -24 -9
-19 -1 5 -13 -1 -27 -15 -14 -13 -25 -19 -24 -14 6 27 0 37 -14 26 -11 -9 -15
-8 -20 5 -9 24 -7 69 4 80 17 17 54 10 77 -13z m850 7 c-1 -11 -2 -20 -3 -20
-11 0 -34 14 -34 21 0 4 7 5 17 2 11 -4 14 -3 9 5 -4 7 -3 12 3 12 5 0 9 -9 8
-20z m-1677 -50 c0 -5 -4 -10 -10 -10 -5 0 -10 5 -10 10 0 6 5 10 10 10 6 0
10 -4 10 -10z m-115 -11 c11 -17 -1 -21 -15 -4 -8 9 -8 15 -2 15 6 0 14 -5 17
-11z m478 5 c3 -3 3 -12 0 -20 -4 -10 -9 -11 -23 -1 -14 8 -16 13 -7 19 15 9
22 10 30 2z m-143 -44 c0 -4 11 -6 24 -5 19 2 24 -1 23 -16 -1 -10 -7 -19 -13
-19 -7 0 -14 -7 -18 -15 -3 -8 -1 -15 4 -15 6 0 10 6 11 13 0 9 2 9 6 -1 2 -6
9 -10 14 -6 5 3 17 -2 26 -11 14 -14 14 -18 2 -26 -8 -5 -20 -7 -27 -4 -7 3
-10 1 -7 -4 7 -13 -3 -18 -47 -25 -24 -4 -38 -2 -38 5 0 5 -4 8 -9 4 -13 -7
-20 5 -26 47 -6 38 16 81 30 58 5 -9 4 -11 -3 -6 -7 4 -12 3 -12 -3 0 -5 5
-13 10 -16 9 -6 15 8 11 29 -4 19 9 35 24 30 8 -3 15 -10 15 -14z m1390 10 c0
-5 -2 -10 -4 -10 -3 0 -8 5 -11 10 -3 6 -1 10 4 10 6 0 11 -4 11 -10z m45 -50
c3 -5 1 -10 -4 -10 -6 0 -11 5 -11 10 0 6 2 10 4 10 3 0 8 -4 11 -10z m-352
-39 c-4 -14 -7 -34 -7 -43 0 -10 -6 -18 -12 -18 -7 0 -19 -7 -27 -14 -19 -20
-40 -3 -56 43 -14 43 3 58 65 58 42 0 43 -1 37 -26z m350 -20 c-43 -26 -99
-33 -115 -14 -12 15 -11 15 10 4 18 -10 22 -9 22 3 0 22 15 27 43 17 19 -7 28
-6 37 4 7 8 17 12 22 9 5 -4 -3 -14 -19 -23z m17 -71 c0 -22 -8 -25 -30 -10
-13 9 -13 11 0 20 22 15 30 12 30 -10z m135 -28 c22 -11 49 -27 60 -36 36 -28
-2 -17 -65 19 -34 19 -68 35 -76 35 -8 0 -14 4 -14 9 0 12 44 0 95 -27z m-289
3 c4 -9 16 -13 35 -11 32 4 37 -5 15 -27 -15 -15 -4 -37 19 -37 6 0 16 -5 23
-12 9 -9 7 -14 -6 -24 -9 -7 -21 -9 -27 -4 -5 4 -19 4 -30 -1 -11 -4 -14 -8
-7 -8 7 -1 10 -6 7 -12 -4 -6 -14 -8 -23 -4 -8 3 -19 0 -24 -7 -6 -10 -8 -10
-8 0 0 6 -7 12 -15 12 -15 0 -18 9 -18 55 0 43 3 55 13 55 5 0 7 -8 3 -17 -3
-10 -2 -15 2 -10 5 4 9 17 11 30 1 12 3 25 3 30 2 13 21 7 27 -8z m-1606 -5
c0 -5 -2 -10 -4 -10 -3 0 -8 5 -11 10 -3 6 -1 10 4 10 6 0 11 -4 11 -10z
m1866 -25 c9 -8 11 -15 6 -15 -5 0 -15 7 -22 15 -7 8 -9 15 -6 15 4 0 14 -7
22 -15z m-816 -55 c0 -16 -4 -32 -10 -35 -6 -4 -10 10 -10 35 0 25 4 39 10 35
6 -3 10 -19 10 -35z m-1130 20 c0 -5 -5 -10 -10 -10 -6 0 -29 -9 -50 -19 -22
-11 -40 -16 -40 -12 0 9 39 32 70 42 14 4 26 8 28 8 1 1 2 -3 2 -9z m2008 -12
c-3 -7 -15 -14 -29 -16 -24 -4 -24 -3 -4 12 24 19 38 20 33 4z m-1978 -6 c0
-5 -10 -17 -22 -28 -12 -10 -19 -14 -16 -9 3 6 8 18 11 28 6 17 27 24 27 9z
m-52 -27 c0 -14 -5 -25 -10 -25 -5 0 -6 5 -3 10 3 6 -2 10 -11 10 -16 0 -16 1
2 15 10 8 20 15 20 15 1 0 2 -11 2 -25z m609 -21 c7 -15 8 -24 1 -24 -7 0 -6
-5 1 -13 16 -21 3 -27 -55 -27 -51 0 -76 12 -53 25 5 4 8 12 6 19 -6 16 19 50
32 42 5 -4 12 -2 15 3 10 16 40 1 53 -25z m1448 6 c-3 -5 -10 -10 -16 -10 -5
0 -9 5 -9 10 0 6 7 10 16 10 8 0 12 -4 9 -10z m-2225 -10 c0 -5 -7 -10 -16
-10 -8 0 -12 5 -9 10 3 6 10 10 16 10 5 0 9 -4 9 -10z m219 -12 c11 -11 12
-10 6 2 -6 10 -2 9 13 -3 13 -12 28 -16 41 -12 12 4 21 2 21 -4 0 -6 5 -11 11
-11 5 0 7 5 4 10 -3 6 -1 10 4 10 13 0 13 -3 5 -24 -7 -17 -49 -22 -58 -7 -4
5 -14 8 -24 6 -17 -3 -52 21 -52 37 0 12 14 10 29 -4z m-84 -8 c3 -5 1 -10 -4
-10 -6 0 -11 5 -11 10 0 6 2 10 4 10 3 0 8 -4 11 -10z m1185 -17 c0 -15 2 -16
10 -3 8 13 10 12 10 -2 0 -13 -8 -18 -30 -18 -23 0 -30 4 -30 20 0 13 7 20 20
20 12 0 20 -7 20 -17z m800 -47 c0 -27 -7 -39 -35 -60 -19 -15 -35 -23 -35
-17 0 5 11 18 25 29 30 24 33 37 5 22 -16 -9 -18 -8 -14 5 4 8 12 15 20 15 8
0 14 9 14 20 0 11 5 20 10 20 6 0 10 -15 10 -34z m56 10 c20 -21 17 -28 -6
-14 -11 7 -20 16 -20 20 0 12 10 9 26 -6z m-1951 -6 c3 -5 1 -10 -4 -10 -6 0
-11 5 -11 10 0 6 2 10 4 10 3 0 8 -4 11 -10z m92 4 c-3 -3 -12 -4 -19 -1 -8 3
-5 6 6 6 11 1 17 -2 13 -5z m1836 -31 c-7 -2 -9 -12 -6 -21 3 -9 3 -14 -1 -11
-4 4 -9 22 -11 40 -4 31 -4 32 13 15 12 -13 13 -20 5 -23z m-2113 17 c0 -5 -7
-10 -15 -10 -8 0 -15 5 -15 10 0 6 7 10 15 10 8 0 15 -4 15 -10z m1300 1 c0
-13 -147 -145 -166 -149 -23 -5 -17 4 39 64 65 71 127 112 127 85z m-110 -5
c0 -2 -7 -7 -16 -10 -8 -3 -12 -2 -9 4 6 10 25 14 25 6z m-980 -16 c0 -5 -4
-10 -10 -10 -5 0 -10 5 -10 10 0 6 5 10 10 10 6 0 10 -4 10 -10z m2008 0 c15
0 15 -1 0 -16 -15 -15 -18 -15 -32 -1 -20 20 -20 31 0 23 9 -3 23 -6 32 -6z
m-1943 -28 c-6 -7 -34 11 -29 19 3 5 11 3 19 -4 7 -6 12 -13 10 -15z m1904 -2
c12 -18 13 -22 2 -19 -8 3 -21 16 -30 29 -12 18 -13 22 -2 19 8 -3 21 -16 30
-29z m-204 1 c-3 -6 -11 -11 -17 -11 -6 0 -6 6 2 15 14 17 26 13 15 -4z
m-1975 -1 c0 -5 -4 -10 -10 -10 -5 0 -10 5 -10 10 0 6 5 10 10 10 6 0 10 -4
10 -10z m2124 -32 c-41 -20 -69 -24 -59 -8 4 6 10 8 15 5 4 -3 13 2 20 11 7 8
19 13 26 10 9 -3 11 1 7 12 -6 15 -5 15 11 3 16 -13 15 -16 -20 -33z m136 20
c0 -5 5 -6 10 -3 11 7 14 -8 4 -18 -4 -4 -15 3 -25 15 -23 26 -23 29 -4 22 8
-4 15 -10 15 -16z m-2110 -11 c0 -5 -9 -7 -19 -4 -14 3 -18 1 -14 -9 6 -17 -2
-18 -29 -3 -17 9 -23 8 -30 -5 -5 -9 -13 -16 -19 -16 -5 0 -1 9 10 21 11 12
24 18 30 14 6 -3 11 -1 11 5 0 5 14 9 30 8 17 -1 30 -6 30 -11z m-120 -1 c0
-3 -4 -8 -10 -11 -5 -3 -10 -1 -10 4 0 6 5 11 10 11 6 0 10 -2 10 -4z m1282
-38 c-21 -34 -81 -82 -90 -73 -7 7 89 105 101 105 5 0 0 -15 -11 -32z m720 10
c-7 -7 -12 -8 -12 -2 0 6 3 14 7 17 3 4 9 5 12 2 2 -3 -1 -11 -7 -17z m197 3
c22 -19 22 -20 3 -18 -12 0 -23 9 -25 19 -6 22 -5 22 22 -1z m-2239 -24 c0 -4
-9 -3 -20 3 -11 6 -20 15 -20 20 0 6 9 5 20 -2 11 -7 20 -16 20 -21z m200 18
c-7 -8 -17 -15 -22 -15 -6 0 -5 7 2 15 7 8 17 15 22 15 6 0 5 -7 -2 -15z
m1946 6 c11 9 18 9 26 1 6 -6 17 -8 24 -5 8 3 14 1 14 -5 0 -11 -34 -22 -72
-22 -20 0 -25 4 -23 18 5 27 6 28 12 14 4 -10 8 -10 19 -1z m184 5 c0 -3 -4
-8 -10 -11 -5 -3 -10 -1 -10 4 0 6 5 11 10 11 6 0 10 -2 10 -4z m-1746 -17
c-2 -4 0 -10 5 -14 17 -10 1 -33 -27 -41 l-27 -7 25 -8 c22 -7 20 -8 -10 -6
-28 2 -35 6 -36 24 -1 12 -4 28 -7 36 -3 9 -1 18 6 20 20 7 76 4 71 -4z m1516
-9 c0 -5 -2 -10 -4 -10 -3 0 -8 5 -11 10 -3 6 -1 10 4 10 6 0 11 -4 11 -10z
m-2065 -10 c3 -5 2 -10 -4 -10 -5 0 -13 5 -16 10 -3 6 -2 10 4 10 5 0 13 -4
16 -10z m188 -2 c-4 -7 -8 -17 -8 -22 0 -13 -54 -16 -61 -4 -4 6 -1 9 7 6 7
-2 22 4 33 14 23 21 41 24 29 6z m-158 -18 c3 -5 1 -10 -4 -10 -6 0 -11 5 -11
10 0 6 2 10 4 10 3 0 8 -4 11 -10z m65 -43 c0 -13 -29 12 -42 37 -10 19 -8 18
16 -3 14 -14 26 -29 26 -34z m2025 43 c3 -5 -1 -10 -10 -10 -9 0 -13 5 -10 10
3 6 8 10 10 10 2 0 7 -4 10 -10z m39 4 c23 -9 20 -23 -4 -17 -11 3 -20 9 -20
14 0 11 3 11 24 3z m196 -24 c6 -11 7 -20 2 -20 -10 0 -32 21 -32 32 0 16 19
8 30 -12z m-230 -30 c0 -5 -2 -10 -4 -10 -3 0 -8 5 -11 10 -3 6 -1 10 4 10 6
0 11 -4 11 -10z m40 -16 c6 -14 14 -23 20 -19 11 7 50 -15 50 -28 0 -5 -7 -7
-15 -3 -9 3 -21 -4 -31 -20 -19 -28 -31 -26 -16 3 8 14 4 25 -14 48 -26 33
-30 45 -14 45 6 0 15 -12 20 -26z m-1223 0 c19 -5 23 -13 21 -45 -1 -30 -4
-36 -14 -28 -14 12 -38 3 -29 -11 3 -4 -4 -6 -15 -3 -11 3 -23 9 -26 14 -3 5
2 6 10 3 20 -8 21 12 2 23 -22 12 -23 21 -1 37 23 18 23 18 52 10z m1193 -14
c0 -5 -7 -10 -15 -10 -8 0 -15 5 -15 10 0 6 7 10 15 10 8 0 15 -4 15 -10z
m-2067 -148 c0 -12 -1 -31 -2 -42 -2 -41 -21 -18 -21 26 0 32 4 44 12 42 7 -3
12 -14 11 -26z m1876 -61 l46 -50 -35 -6 c-42 -8 -50 -18 -50 -69 l0 -39 -25
23 c-14 13 -25 29 -25 35 0 6 -11 22 -25 35 -33 31 -16 53 17 24 l23 -19 -19
22 c-18 22 -18 23 10 57 16 19 31 35 33 35 2 1 25 -21 50 -48z m-1859 -41 c0
-16 -7 -20 -30 -20 -23 0 -30 4 -30 20 0 16 7 20 30 20 23 0 30 -4 30 -20z
m366 -20 c9 0 14 -10 14 -27 0 -14 -3 -23 -7 -19 -4 4 -13 -8 -19 -26 -10 -27
-13 -29 -13 -10 -1 12 -5 22 -9 22 -5 0 -14 -10 -20 -22 l-11 -23 -7 23 c-3
12 -10 22 -16 22 -11 0 6 32 28 55 9 9 23 14 31 11 8 -3 21 -6 29 -6z m362
-13 c8 -9 5 -19 -9 -37 -16 -21 -20 -23 -29 -10 -27 40 8 84 38 47z m852 -32
c0 -32 -2 -34 -19 -23 -18 11 -18 13 -3 35 10 12 18 23 20 23 1 0 2 -16 2 -35z
m440 5 c0 -5 -4 -10 -10 -10 -5 0 -10 5 -10 10 0 6 5 10 10 10 6 0 10 -4 10
-10z m-1361 -21 c31 -25 17 -44 -22 -30 -29 11 -30 12 -21 35 8 20 14 20 43
-5z m125 2 c17 -19 17 -20 -12 -35 -31 -16 -42 -13 -42 12 0 11 23 37 36 42 0
0 9 -9 18 -19z m-884 5 c0 -3 -4 -8 -10 -11 -5 -3 -10 -1 -10 4 0 6 5 11 10
11 6 0 10 -2 10 -4z m2034 -83 c-18 -19 -27 -16 -21 7 3 10 2 19 -2 18 -21 -2
-28 5 -27 32 l1 30 31 -37 c26 -30 29 -40 18 -50z m1 77 c3 -5 1 -10 -4 -10
-6 0 -11 5 -11 10 0 6 2 10 4 10 3 0 8 -4 11 -10z m61 -9 c-4 -5 -1 -11 6 -13
6 -2 8 -10 4 -17 -6 -9 -12 -8 -27 5 -25 22 -24 34 2 34 11 0 18 -4 15 -9z
m-2296 -5 c0 -2 -9 -6 -20 -9 -11 -3 -18 -1 -14 4 5 9 34 13 34 5z m2294 -58
c-3 -4 4 -8 15 -8 10 0 21 4 23 9 2 5 10 2 18 -7 13 -14 12 -15 -3 -9 -9 3
-17 2 -17 -3 0 -6 -7 -10 -16 -10 -16 0 -45 28 -65 63 -9 16 -6 15 20 -4 17
-12 28 -26 25 -31z m46 42 c0 -5 -4 -10 -10 -10 -5 0 -10 5 -10 10 0 6 5 10
10 10 6 0 10 -4 10 -10z m-270 -17 c0 -1 -18 -16 -41 -34 -42 -33 -89 -46 -89
-26 0 12 37 41 52 42 4 0 12 5 17 10 8 8 61 15 61 8z m437 -14 c2 -16 -1 -19
-9 -11 -5 5 -7 15 -4 21 10 15 12 14 13 -10z m-2608 -33 c0 -6 -3 -5 -6 2 -2
6 -11 12 -19 12 -15 0 -19 12 -7 24 8 8 33 -22 32 -38z m201 23 c0 -6 -4 -7
-10 -4 -5 3 -10 11 -10 16 0 6 5 7 10 4 6 -3 10 -11 10 -16z m40 11 c0 -5 -4
-10 -10 -10 -5 0 -10 5 -10 10 0 6 5 10 10 10 6 0 10 -4 10 -10z m110 0 c0 -5
-4 -10 -10 -10 -5 0 -10 5 -10 10 0 6 5 10 10 10 6 0 10 -4 10 -10z m734 1 c8
-13 -20 -33 -41 -29 -10 2 -19 11 -21 21 -3 13 3 17 27 17 16 0 32 -4 35 -9z
m154 -22 c2 -11 -6 -18 -25 -22 -37 -7 -54 10 -28 29 24 18 49 14 53 -7z
m1297 0 c4 -6 4 -13 0 -17 -3 -3 -10 0 -14 7 -5 7 -14 10 -20 7 -6 -4 -11 -2
-11 3 0 14 37 14 45 0z m-278 -40 c-8 -13 -15 -15 -22 -8 -7 7 -5 13 5 19 8 5
11 10 7 10 -5 0 -5 5 -1 11 4 8 9 7 14 -2 5 -7 3 -20 -3 -30z m53 9 c0 -5 -6
-8 -14 -8 -9 0 -12 7 -9 21 4 16 8 17 14 7 5 -7 9 -16 9 -20z m-450 -33 c15
-16 13 -16 -32 -18 -22 -1 -48 15 -42 24 3 6 0 17 -7 25 -12 14 -8 14 26 0 22
-10 47 -23 55 -31z m-1679 3 c-32 -34 -35 -35 -29 -3 6 29 -16 34 -48 11 -13
-10 -14 -14 -4 -13 8 2 21 6 28 10 7 5 12 4 12 -2 0 -11 -6 -13 -53 -15 -15
-1 -26 3 -24 9 7 19 51 34 98 32 l46 -2 -26 -27z m2284 22 c-3 -5 -1 -10 6
-10 7 0 10 -2 7 -5 -8 -9 -38 6 -32 16 3 5 10 9 15 9 6 0 7 -4 4 -10z m-65
-10 c0 -5 -4 -10 -10 -10 -5 0 -10 5 -10 10 0 6 5 10 10 10 6 0 10 -4 10 -10z
m-1116 -36 c7 -19 8 -17 -22 -33 -26 -14 -42 -7 -42 19 0 30 53 42 64 14z
m1076 6 c0 -5 -5 -10 -11 -10 -5 0 -7 5 -4 10 3 6 8 10 11 10 2 0 4 -4 4 -10z
m-166 -45 c4 -12 0 -14 -22 -9 -36 9 -52 22 -46 39 4 10 10 10 34 -1 15 -8 31
-21 34 -29z m36 35 c0 -5 -4 -10 -10 -10 -5 0 -10 5 -10 10 0 6 5 10 10 10 6
0 10 -4 10 -10z m87 4 c-3 -3 -12 -4 -19 -1 -8 3 -5 6 6 6 11 1 17 -2 13 -5z
m118 -4 c3 -5 1 -10 -4 -10 -6 0 -11 5 -11 10 0 6 2 10 4 10 3 0 8 -4 11 -10z
m-2388 -18 c0 -10 -9 -19 -20 -19 -18 -2 -18 -1 -2 18 22 23 24 24 22 1z
m2433 8 c0 -5 -2 -10 -4 -10 -3 0 -8 5 -11 10 -3 6 -1 10 4 10 6 0 11 -4 11
-10z m-157 -14 c23 -18 22 -28 -5 -24 -11 2 -22 11 -24 21 -3 20 5 21 29 3z
m200 -63 c4 -7 14 -19 22 -27 8 -8 11 -17 6 -20 -5 -3 -11 1 -14 8 -3 8 -16
20 -29 26 -22 11 -22 11 1 -8 23 -19 24 -21 8 -37 -10 -9 -24 -15 -31 -12 -8
3 -22 0 -31 -7 -16 -12 -16 -13 -1 -19 20 -8 21 -23 0 -31 -20 -8 -41 4 -25
14 7 3 9 14 5 23 -4 13 -10 14 -24 7 -25 -13 -33 -13 -27 3 2 6 9 12 15 12 7
0 12 3 12 8 0 4 0 12 0 18 0 5 -4 7 -10 4 -16 -10 -12 33 6 60 9 14 23 25 30
25 8 0 14 5 14 12 0 11 57 -35 73 -59z m-149 42 c-7 -16 -24 -21 -24 -6 0 8 7
13 27 20 1 1 0 -6 -3 -14z m23 -7 c-3 -8 -6 -5 -6 6 -1 11 2 17 5 13 3 -3 4
-12 1 -19z m-235 -51 l37 -40 -42 -40 -42 -39 40 29 c43 32 75 47 75 35 0 -10
-55 -67 -94 -97 -49 -37 -73 -33 -86 15 -6 22 -15 40 -20 40 -14 0 -23 -59
-11 -74 8 -9 1 -13 -32 -14 -47 -3 -154 44 -149 66 1 6 -3 12 -10 12 -7 0 2
15 20 33 35 36 41 53 15 39 -10 -5 -27 -6 -37 -3 -17 7 -16 9 11 29 37 27 43
27 43 5 1 -15 4 -14 21 6 12 15 23 21 27 14 11 -17 63 -22 69 -7 3 8 15 14 28
14 12 0 30 9 40 20 22 24 44 15 97 -43z m-1414 13 c1 -16 -2 -30 -7 -30 -5 0
-9 14 -9 30 1 17 4 30 7 30 4 0 8 -13 9 -30z m2146 -15 c-10 -25 -88 -65 -125
-65 -32 1 -30 3 41 40 85 44 92 46 84 25z m-1347 -17 c23 2 33 -1 26 -6 -9 -6
-7 -13 9 -27 15 -12 18 -20 10 -23 -7 -2 -12 -16 -13 -30 0 -15 -3 -21 -6 -14
-4 11 -9 10 -22 -2 -16 -15 -21 -14 -56 3 -21 10 -33 21 -27 25 6 3 14 27 18
52 4 30 9 41 15 33 5 -8 23 -13 46 -11z m1108 -4 c12 -3 27 -15 34 -27 8 -12
10 -19 6 -15 -4 4 -16 3 -26 -3 -12 -6 -19 -6 -19 0 0 5 6 12 13 15 6 3 3 4
-8 1 -13 -3 -25 2 -33 15 -13 22 -6 25 33 14z m-2552 -21 c-4 -10 -2 -14 5 -9
6 3 13 2 17 -4 7 -12 -32 -12 -60 0 -19 8 -19 9 3 9 13 1 20 5 17 11 -3 6 1
10 9 10 10 0 13 -6 9 -17z m2497 0 c0 -13 -22 -43 -32 -43 -6 0 -3 9 7 20 17
18 17 20 2 14 -13 -5 -16 -2 -11 9 5 13 34 14 34 0z m-1830 -18 c0 -10 -10
-15 -30 -15 -20 0 -30 5 -30 15 0 10 10 15 30 15 20 0 30 -5 30 -15z m694 -1
c3 -8 2 -12 -4 -9 -6 3 -10 10 -10 16 0 14 7 11 14 -7z m886 6 c0 -5 -4 -10
-10 -10 -5 0 -10 5 -10 10 0 6 5 10 10 10 6 0 10 -4 10 -10z m190 -40 c0 -13
-5 -18 -14 -14 -8 3 -12 12 -9 20 8 21 23 17 23 -6z m100 10 c0 -5 6 -7 14 -4
16 6 31 -12 17 -21 -6 -3 -19 0 -31 7 -21 14 -27 28 -10 28 6 0 10 -4 10 -10z
m-140 -10 c0 -5 -5 -10 -11 -10 -5 0 -7 5 -4 10 3 6 8 10 11 10 2 0 4 -4 4
-10z m-2410 -4 c0 -3 -4 -8 -10 -11 -5 -3 -10 -1 -10 4 0 6 5 11 10 11 6 0 10
-2 10 -4z m17 -28 c-3 -8 -6 -5 -6 6 -1 11 2 17 5 13 3 -3 4 -12 1 -19z m2688
-8 c3 -5 -1 -10 -9 -10 -9 0 -16 5 -16 10 0 6 4 10 9 10 6 0 13 -4 16 -10z
m-2719 -24 c1 -17 -2 -23 -12 -19 -16 6 -16 6 -8 27 9 23 19 19 20 -8z m2775
-31 c5 4 17 1 26 -4 14 -8 9 -10 -21 -6 -46 5 -56 13 -36 25 11 7 16 5 18 -5
2 -9 8 -13 13 -10z m53 -36 c-27 -11 -54 -11 -54 0 0 11 49 20 64 12 5 -2 1
-8 -10 -12z m-189 -9 c3 -5 1 -10 -4 -10 -6 0 -11 5 -11 10 0 6 2 10 4 10 3 0
8 -4 11 -10z m63 -20 c5 -13 3 -13 -11 -1 -12 9 -17 10 -17 2 0 -7 -4 -9 -10
-6 -17 11 -11 22 12 21 12 0 24 -8 26 -16z m-2751 -26 c-3 -3 -12 -4 -19 -1
-8 3 -5 6 6 6 11 1 17 -2 13 -5z m-59 -50 c-4 -3 -12 5 -18 18 -12 22 -12 22
6 6 10 -10 15 -20 12 -24z m2892 26 c0 -5 -2 -10 -4 -10 -3 0 -8 5 -11 10 -3
6 -1 10 4 10 6 0 11 -4 11 -10z m-1430 -80 c0 -49 -16 -53 -22 -5 -3 29 1 38
20 44 1 1 2 -17 2 -39z m-1480 -49 c0 -5 -13 -14 -30 -21 -16 -7 -30 -16 -30
-20 0 -4 -9 -10 -20 -13 -31 -8 -24 0 28 33 53 34 52 33 52 21z m1484 -17 c9
-3 16 -14 16 -24 0 -10 7 -23 16 -30 43 -37 54 -121 23 -181 -11 -22 -25 -39
-33 -39 -7 0 -31 12 -52 26 -41 28 -73 34 -111 21 -22 -8 -23 -6 -23 41 0 60
29 107 83 135 20 10 37 25 37 32 0 7 6 16 13 18 6 3 13 6 14 6 1 1 8 -2 17 -5z
m-1474 -45 c-6 -11 -15 -17 -21 -14 -14 10 -11 25 7 25 9 0 12 5 8 12 -4 7 -3
8 4 4 9 -5 9 -13 2 -27z m124 13 c4 -11 17 -25 31 -32 29 -15 24 -30 -10 -30
-20 0 -25 -7 -32 -40 l-8 -40 -41 40 c-23 21 -44 36 -48 33 -3 -4 -6 -1 -6 6
0 6 8 14 18 18 9 3 29 19 44 35 31 33 44 35 52 10z m970 6 c-5 -9 -2 -9 9 1
15 12 17 11 17 -7 0 -15 5 -20 15 -16 20 8 19 -10 -2 -64 -13 -34 -20 -42 -35
-39 -12 3 -18 -1 -19 -11 -1 -15 -2 -15 -6 1 -2 9 -12 17 -22 17 -10 0 -18 6
-19 13 -1 6 -5 29 -8 50 -4 23 -2 37 4 35 5 -2 10 2 10 7 1 6 11 13 24 17 35
10 40 9 32 -4z m-1214 -28 c0 -5 -4 -10 -10 -10 -5 0 -10 5 -10 10 0 6 5 10
10 10 6 0 10 -4 10 -10z m70 0 c0 -5 -2 -10 -4 -10 -3 0 -8 5 -11 10 -3 6 -1
10 4 10 6 0 11 -4 11 -10z m-20 -20 c0 -5 -4 -10 -10 -10 -5 0 -10 5 -10 10 0
6 5 10 10 10 6 0 10 -4 10 -10z m-80 -4 c0 -3 -4 -8 -10 -11 -5 -3 -10 -1 -10
4 0 6 5 11 10 11 6 0 10 -2 10 -4z m110 -16 c0 -5 -7 -10 -16 -10 -8 0 -12 5
-9 10 3 6 10 10 16 10 5 0 9 -4 9 -10z m-50 -4 c0 -3 -4 -8 -10 -11 -5 -3 -10
-1 -10 4 0 6 5 11 10 11 6 0 10 -2 10 -4z m1250 -6 c0 -5 -5 -10 -11 -10 -5 0
-7 5 -4 10 3 6 8 10 11 10 2 0 4 -4 4 -10z m-1290 -4 c0 -3 -4 -8 -10 -11 -5
-3 -10 -1 -10 4 0 6 5 11 10 11 6 0 10 -2 10 -4z m-100 -30 c0 -3 -4 -8 -10
-11 -5 -3 -10 -1 -10 4 0 6 5 11 10 11 6 0 10 -2 10 -4z m-35 -16 c3 -5 1 -10
-4 -10 -6 0 -11 5 -11 10 0 6 2 10 4 10 3 0 8 -4 11 -10z m2262 0 c37 -14 61
-53 44 -73 -6 -8 -9 -23 -5 -33 5 -15 4 -16 -4 -5 -11 15 -70 20 -90 8 -6 -4
-14 -3 -17 3 -4 6 -1 9 6 8 6 -2 14 3 17 11 2 8 0 11 -6 8 -21 -14 -21 36 1
59 26 28 18 26 54 14z m-1987 -16 c0 -8 -5 -12 -10 -9 -6 4 -8 11 -5 16 9 14
15 11 15 -7z m-70 -4 c0 -5 -5 -10 -11 -10 -5 0 -7 5 -4 10 3 6 8 10 11 10 2
0 4 -4 4 -10z m804 -24 c8 3 16 -4 20 -18 10 -40 6 -62 -19 -93 -21 -25 -23
-26 -18 -7 3 13 1 22 -6 22 -6 0 -12 -8 -12 -17 -1 -16 -2 -16 -6 0 -3 10 -11
16 -18 13 -16 -6 -27 18 -18 42 6 15 4 15 -15 -2 l-22 -19 16 34 c24 48 54 71
71 53 8 -7 20 -11 27 -8z m-927 8 c-3 -3 -12 -4 -19 -1 -8 3 -5 6 6 6 11 1 17
-2 13 -5z m80 -10 c-3 -3 -12 -4 -19 -1 -8 3 -5 6 6 6 11 1 17 -2 13 -5z
m2023 -14 c0 -5 -2 -10 -4 -10 -3 0 -8 5 -11 10 -3 6 -1 10 4 10 6 0 11 -4 11
-10z m-1950 -34 c0 -3 -4 -8 -10 -11 -5 -3 -10 -1 -10 4 0 6 5 11 10 11 6 0
10 -2 10 -4z m386 -17 c-8 -12 -12 -28 -9 -36 5 -12 8 -11 24 2 17 16 17 15
12 -6 -4 -13 -2 -20 4 -16 17 10 15 -69 -2 -83 -13 -11 -14 -10 -9 4 8 21 0
20 -34 -1 -26 -17 -26 -17 -13 0 11 13 11 20 1 32 -6 8 -9 23 -5 35 5 15 1 26
-12 36 -10 9 -13 13 -7 10 6 -3 22 6 34 19 29 31 36 32 16 4z m-476 -169 c0
-5 -4 -10 -10 -10 -5 0 -10 5 -10 10 0 6 5 10 10 10 6 0 10 -4 10 -10z m-55
-9 c3 -5 1 -12 -5 -16 -5 -3 -10 1 -10 9 0 18 6 21 15 7z m-97 -22 c-10 -5
-15 -17 -12 -27 4 -12 3 -13 -3 -4 -6 7 -18 10 -29 7 -16 -6 -15 -3 5 14 13
12 31 21 40 21 14 -1 14 -2 -1 -11z m32 -3 c0 -2 -8 -10 -17 -17 -16 -13 -17
-12 -4 4 13 16 21 21 21 13z m1010 -30 c0 -8 -6 -17 -12 -20 -7 -3 -1 -3 13 0
20 4 33 -1 53 -21 33 -32 32 -35 -2 -35 -38 0 -52 -17 -52 -62 0 -21 -4 -38
-9 -38 -5 0 -28 23 -51 51 l-43 50 29 32 c53 59 74 71 74 43z m-1026 -18 c-16
-29 -26 -37 -40 -31 -7 3 -11 9 -8 14 3 5 9 7 14 4 4 -3 13 2 20 10 15 18 24
20 14 3z m156 -9 c0 -15 -29 -22 -43 -10 -10 8 -19 7 -33 -4 -18 -13 -16 -14
19 -15 21 0 47 5 58 10 11 7 19 7 19 1 0 -5 -6 -12 -12 -15 -7 -3 -2 -3 11 0
13 3 21 2 18 -3 -7 -10 34 -10 51 1 7 4 10 11 8 15 -3 4 16 8 40 8 37 1 45 -1
40 -14 -4 -11 -2 -13 9 -9 8 3 15 1 15 -5 0 -6 -8 -9 -17 -7 -10 2 -17 10 -15
17 1 7 -2 9 -8 6 -6 -4 -9 -14 -6 -22 5 -11 2 -13 -9 -9 -10 3 -13 2 -10 -5 4
-5 15 -7 26 -4 23 7 76 -29 59 -40 -6 -4 -19 0 -29 9 -10 9 -21 16 -26 16 -5
0 0 -7 11 -15 15 -11 16 -14 4 -15 -9 0 -22 6 -29 13 -11 10 -12 9 -6 -2 6
-11 4 -13 -11 -7 -15 6 -17 5 -6 -5 26 -28 9 -28 -45 0 -92 45 -128 59 -169
66 -74 13 -75 13 -56 35 13 14 31 18 80 18 34 0 62 -4 62 -9z m70 -19 c0 -5
-5 -10 -11 -10 -5 0 -7 5 -4 10 3 6 8 10 11 10 2 0 4 -4 4 -10z m199 -19 c9
-6 5 -8 -13 -8 -14 0 -26 3 -26 8 0 11 21 11 39 0z m1020 -102 c12 -21 6 -63
-9 -54 -4 3 -11 -2 -14 -11 -4 -10 -13 -13 -26 -9 -13 4 -20 2 -20 -7 0 -7 -7
-2 -16 10 -19 28 -15 68 7 64 9 -1 19 3 22 11 8 20 42 18 56 -4z m221 6 c9
-11 34 -15 99 -15 129 0 281 -36 281 -66 0 -17 8 -18 -97 7 -49 12 -126 22
-173 23 -74 1 -88 -2 -108 -20 -22 -20 -22 -24 -11 -94 12 -78 6 -148 -17
-193 -15 -28 -68 -67 -93 -67 -7 0 -29 -13 -48 -30 -38 -33 -77 -39 -121 -16
-36 19 -75 73 -67 94 5 13 14 7 46 -31 45 -52 80 -61 118 -29 l22 17 -46 24
c-25 13 -45 30 -45 37 0 19 8 18 57 -8 23 -12 46 -19 50 -14 4 4 9 52 9 105 1
101 14 161 40 181 7 7 14 27 14 46 0 51 61 84 90 49z m-1240 -29 c0 -3 -4 -8
-10 -11 -5 -3 -10 -1 -10 4 0 6 5 11 10 11 6 0 10 -2 10 -4z m-31 -49 c0 -9
-2 -8 -6 1 -2 6 -10 9 -15 6 -7 -4 -8 -2 -4 5 9 13 26 5 25 -12z m826 -24 l-5
-38 13 34 c18 48 41 54 33 10 l-6 -34 16 34 c11 25 18 31 24 22 6 -11 9 -11
13 0 4 11 9 10 21 -5 11 -13 16 -41 16 -82 l0 -61 -127 -17 c-71 -8 -172 -20
-225 -26 l-97 -11 -74 78 c-42 43 -74 79 -72 81 9 9 270 29 273 21 2 -5 9 -6
15 -2 7 4 21 8 32 9 11 1 28 5 38 9 10 4 17 3 17 -4 0 -6 -10 -11 -22 -12 -13
0 -17 -3 -10 -6 10 -4 2 -17 -25 -45 -28 -30 -32 -37 -14 -28 23 12 23 11 -5
-26 l-28 -39 34 30 c19 16 29 23 23 15 -18 -20 -16 -35 3 -19 9 7 30 42 47 78
17 36 32 60 34 54 2 -6 -6 -31 -18 -55 -12 -24 -22 -45 -21 -48 0 -3 -5 -14
-11 -25 -9 -18 -8 -18 6 -7 9 8 24 34 33 58 10 26 20 40 24 34 4 -7 14 3 24
24 22 46 28 46 21 -1z m-889 -18 c11 -11 12 -19 4 -34 -10 -19 -9 -20 25 -6
19 8 50 15 69 15 l34 0 7 -85 c4 -47 5 -88 3 -91 -3 -2 -35 1 -71 8 l-67 12
-6 60 c-6 52 -8 57 -17 36 -5 -14 -11 -20 -14 -13 -3 8 -11 7 -31 -3 -38 -20
-51 -17 -24 6 24 20 22 40 -4 40 -20 0 -17 13 6 30 25 18 26 31 3 24 -12 -4
-14 -3 -6 3 21 15 73 14 89 -2z m924 -287 c0 -18 -9 -41 -21 -54 -23 -24 -45
-98 -54 -183 -17 -148 -74 -446 -88 -456 -1 -1 -72 -10 -157 -19 -85 -9 -171
-19 -191 -22 l-35 -6 -19 159 c-10 87 -19 210 -20 273 -2 63 -8 128 -14 143
-22 57 -10 61 51 17 47 -35 105 -40 165 -15 l37 16 -29 18 c-17 9 -54 30 -82
46 -96 52 -87 56 212 90 264 31 245 31 245 -7z m108 -230 c18 -18 14 -46 -7
-58 -34 -18 -67 30 -39 58 7 7 17 12 23 12 6 0 16 -5 23 -12z"/>
<path d="M3630 5181 c0 -5 7 -11 15 -15 8 -3 15 -1 15 3 0 5 -7 11 -15 15 -8
3 -15 1 -15 -3z"/>
<path d="M4335 3830 c-3 -5 -2 -10 4 -10 5 0 13 5 16 10 3 6 2 10 -4 10 -5 0
-13 -4 -16 -10z"/>
<path d="M4690 3430 c0 -5 5 -10 11 -10 5 0 7 5 4 10 -3 6 -8 10 -11 10 -2 0
-4 -4 -4 -10z"/>
<path d="M4590 2854 c0 -8 5 -12 10 -9 6 4 8 11 5 16 -9 14 -15 11 -15 -7z"/>
<path d="M4101 2716 c2 -3 26 -14 52 -25 54 -23 56 -12 3 13 -31 15 -65 22
-55 12z"/>
<path d="M2169 1833 c-13 -16 -12 -17 4 -4 9 7 17 15 17 17 0 8 -8 3 -21 -13z"/>
<path d="M3470 1608 c-11 -18 -20 -46 -21 -63 -6 -174 -5 -195 8 -195 36 0 73
75 73 152 0 51 -20 138 -31 138 -5 0 -18 -15 -29 -32z"/>
<path d="M2927 1605 c-33 -41 -35 -51 -4 -25 12 10 31 25 41 33 15 11 16 15 4
19 -9 4 -25 -7 -41 -27z"/>
<path d="M3250 6637 c8 -7 185 -19 178 -11 -4 3 -47 9 -95 11 -48 3 -86 3 -83
0z"/>
<path d="M3313 6408 c-8 -18 -5 -32 10 -61 10 -20 23 -40 28 -43 5 -3 7 -9 4
-14 -3 -4 2 -10 10 -14 21 -8 19 0 -13 48 -43 64 -46 74 -10 35 33 -36 33 -36
35 -11 0 15 -2 20 -7 13 -5 -8 -13 2 -24 28 -8 23 -17 41 -19 41 -2 0 -8 -10
-14 -22z"/>
<path d="M3440 6411 c0 -6 4 -13 10 -16 6 -3 7 1 4 9 -7 18 -14 21 -14 7z"/>
<path d="M3255 6200 c6 -10 1 -11 -19 -6 -15 4 -26 2 -26 -4 0 -5 21 -10 47
-10 50 0 50 1 14 20 -19 9 -22 9 -16 0z"/>
<path d="M3948 6153 c7 -3 16 -2 19 1 4 3 -2 6 -13 5 -11 0 -14 -3 -6 -6z"/>
<path d="M3195 6130 c-3 -5 3 -10 15 -10 12 0 18 5 15 10 -3 6 -10 10 -15 10
-5 0 -12 -4 -15 -10z"/>
<path d="M3306 6113 c-6 -14 -5 -15 5 -6 7 7 10 15 7 18 -3 3 -9 -2 -12 -12z"/>
<path d="M3760 6110 c0 -5 5 -10 11 -10 5 0 7 5 4 10 -3 6 -8 10 -11 10 -2 0
-4 -4 -4 -10z"/>
<path d="M3840 6112 c0 -10 72 -43 79 -36 9 8 -23 34 -37 29 -8 -3 -21 0 -28
6 -9 7 -14 8 -14 1z"/>
<path d="M3320 6041 c0 -5 5 -13 10 -16 6 -3 10 -2 10 4 0 5 -4 13 -10 16 -5
3 -10 2 -10 -4z"/>
<path d="M3710 6030 c-9 -6 -10 -10 -3 -10 6 0 15 5 18 10 8 12 4 12 -15 0z"/>
<path d="M3403 5948 c-19 -24 -24 -38 -15 -38 5 0 14 11 20 25 13 27 10 32 -5
13z"/>
<path d="M3080 5930 c-12 -8 -12 -10 5 -9 11 0 29 4 40 9 18 8 18 9 -5 9 -14
0 -32 -4 -40 -9z"/>
<path d="M3958 5849 c12 -7 22 -16 22 -21 0 -4 11 -8 25 -8 34 0 32 16 -2 24
-70 17 -69 17 -45 5z"/>
<path d="M2958 5763 c6 -2 18 -2 25 0 6 3 1 5 -13 5 -14 0 -19 -2 -12 -5z"/>
<path d="M4198 5699 c-29 -16 -22 -38 9 -33 15 3 30 8 33 11 3 3 -5 3 -17 0
-25 -6 -29 3 -11 21 15 15 9 15 -14 1z"/>
<path d="M4194 5643 c4 -8 2 -13 -6 -14 -7 0 -2 -5 11 -10 32 -13 36 -6 9 17
-12 10 -18 13 -14 7z"/>
<path d="M4230 5639 c0 -5 5 -7 10 -4 6 3 10 8 10 11 0 2 -4 4 -10 4 -5 0 -10
-5 -10 -11z"/>
<path d="M2940 5590 c-9 -6 -10 -10 -3 -10 6 0 15 5 18 10 8 12 4 12 -15 0z"/>
<path d="M2888 5543 c6 -2 18 -2 25 0 6 3 1 5 -13 5 -14 0 -19 -2 -12 -5z"/>
<path d="M2913 5488 c-46 -15 -42 -32 5 -23 35 6 36 6 17 -9 -11 -8 -15 -15
-10 -16 6 0 25 14 44 30 l34 30 -29 -1 c-16 -1 -44 -6 -61 -11z"/>
<path d="M2805 5450 c-8 -13 5 -13 25 0 13 8 13 10 -2 10 -9 0 -20 -4 -23 -10z"/>
<path d="M4305 5440 c3 -5 10 -10 16 -10 5 0 9 5 9 10 0 6 -7 10 -16 10 -8 0
-12 -4 -9 -10z"/>
<path d="M4311 5416 c10 -9 69 -36 69 -32 0 6 -55 36 -66 36 -4 0 -5 -2 -3 -4z"/>
<path d="M2800 5350 c-21 -7 -21 -8 -5 -9 11 0 27 4 35 9 18 11 5 11 -30 0z"/>
<path d="M2653 5253 c15 -2 37 -2 50 0 12 2 0 4 -28 4 -27 0 -38 -2 -22 -4z"/>
<path d="M2658 5213 c7 -3 16 -2 19 1 4 3 -2 6 -13 5 -11 0 -14 -3 -6 -6z"/>
<path d="M4233 5203 c20 -3 27 -9 23 -19 -4 -10 3 -14 24 -14 17 0 30 4 30 9
0 12 -57 31 -84 30 -14 -2 -12 -3 7 -6z"/>
<path d="M2880 5100 c0 -6 7 -10 15 -10 8 0 15 2 15 4 0 2 -7 6 -15 10 -8 3
-15 1 -15 -4z"/>
<path d="M4539 4838 c-20 -18 -26 -26 -15 -18 17 14 19 13 13 -1 -5 -14 0 -15
27 -9 18 4 41 13 52 19 17 11 17 12 1 7 -70 -22 -90 -13 -45 18 12 9 18 16 12
16 -6 0 -26 -15 -45 -32z"/>
<path d="M4423 4853 c9 -2 23 -2 30 0 6 3 -1 5 -18 5 -16 0 -22 -2 -12 -5z"/>
<path d="M4526 4778 c3 -4 11 -5 18 -2 8 3 17 1 21 -5 3 -6 -2 -11 -12 -12
-10 -1 1 -5 24 -11 30 -6 48 -6 60 2 17 11 17 11 1 6 -10 -3 -18 -1 -18 4 0 6
-11 10 -24 10 -14 0 -27 4 -31 9 -3 6 -14 9 -25 8 -10 -1 -17 -5 -14 -9z"/>
<path d="M4533 4543 c9 -2 25 -2 35 0 9 3 1 5 -18 5 -19 0 -27 -2 -17 -5z"/>
<path d="M2555 4510 l20 -22 -35 7 c-45 10 -36 0 13 -13 20 -6 35 -7 32 -2 -3
5 -1 10 5 12 5 1 -5 11 -23 21 l-32 19 20 -22z"/>
<path d="M4490 4515 c0 -7 57 -35 72 -35 9 0 9 3 -2 10 -13 8 -12 10 3 10 10
0 15 5 12 10 -6 10 -85 15 -85 5z"/>
<path d="M2438 4313 c7 -3 16 -2 19 1 4 3 -2 6 -13 5 -11 0 -14 -3 -6 -6z"/>
<path d="M2399 4209 l-24 -20 30 17 c39 24 40 24 28 24 -6 0 -21 -9 -34 -21z"/>
<path d="M2448 4204 c-38 -20 -36 -28 2 -9 17 9 30 18 30 20 0 7 -1 6 -32 -11z"/>
<path d="M2467 4175 l-28 -34 43 -12 c62 -16 148 -27 153 -18 3 4 -6 14 -20
23 -31 20 -45 21 -19 0 19 -15 19 -15 -1 -10 -11 3 -45 8 -74 10 -29 3 -56 7
-59 11 -3 3 7 19 23 35 16 17 25 30 19 29 -5 0 -22 -16 -37 -34z"/>
<path d="M2432 4105 c-11 -13 -5 -15 50 -15 35 0 78 -4 95 -9 18 -5 45 -6 60
-1 26 8 26 8 -12 10 -22 0 -58 5 -80 9 -98 21 -100 21 -113 6z"/>
<path d="M2458 4063 c7 -3 16 -2 19 1 4 3 -2 6 -13 5 -11 0 -14 -3 -6 -6z"/>
<path d="M2499 4053 c-12 -15 -12 -16 4 -10 10 4 33 7 50 8 31 1 31 1 7 9 -38
12 -46 11 -61 -7z"/>
<path d="M4550 3979 c0 -4 -12 -10 -27 -12 -23 -3 -22 -4 8 -6 23 0 39 4 42
12 3 8 -1 14 -9 14 -8 0 -14 -4 -14 -8z"/>
<path d="M4618 3943 c12 -2 22 -11 22 -19 0 -16 18 -18 38 -5 10 6 5 11 -19
20 -17 6 -39 10 -48 10 -9 -1 -6 -4 7 -6z"/>
<path d="M4718 3898 c5 -5 16 -8 23 -6 8 3 3 7 -10 11 -17 4 -21 3 -13 -5z"/>
<path d="M2310 3839 c0 -12 42 -22 49 -12 3 6 13 13 21 16 8 3 -4 5 -27 5 -24
-1 -43 -5 -43 -9z"/>
<path d="M4750 3840 c0 -6 7 -10 15 -10 8 0 15 2 15 4 0 2 -7 6 -15 10 -8 3
-15 1 -15 -4z"/>
<path d="M2310 3590 c8 -5 20 -10 25 -10 6 0 3 5 -5 10 -8 5 -19 10 -25 10 -5
0 -3 -5 5 -10z"/>
<path d="M4905 3589 c-5 -7 5 -8 32 -3 51 9 54 14 10 14 -20 0 -39 -5 -42 -11z"/>
<path d="M2350 3560 c0 -5 7 -10 15 -10 7 0 18 -6 22 -14 5 -9 15 -11 28 -5
19 7 19 8 -2 8 -14 1 -23 7 -23 16 0 8 -9 15 -20 15 -11 0 -20 -4 -20 -10z"/>
<path d="M4896 3545 c10 -27 24 -35 59 -34 17 1 22 3 12 6 -9 2 -15 9 -12 14
4 5 -4 9 -17 9 -13 0 -30 6 -37 13 -10 10 -11 8 -5 -8z"/>
<path d="M4948 3553 c6 -2 18 -2 25 0 6 3 1 5 -13 5 -14 0 -19 -2 -12 -5z"/>
<path d="M2180 3547 c0 -2 15 -14 33 -27 20 -15 27 -17 18 -6 -13 16 -51 41
-51 33z"/>
<path d="M4750 3505 c12 -15 30 -12 30 6 0 5 -10 9 -21 9 -18 0 -19 -2 -9 -15z"/>
<path d="M2120 3490 c8 -5 22 -9 30 -9 10 0 8 3 -5 9 -27 12 -43 12 -25 0z"/>
<path d="M5092 3458 c-14 -18 -45 -81 -48 -95 -1 -7 4 -13 12 -13 8 0 13 5 12
12 -2 7 16 13 50 15 28 2 52 0 52 -5 0 -4 -10 -9 -22 -9 -13 -1 -34 -5 -47 -8
-22 -6 -23 -7 -6 -25 22 -25 9 -26 -19 -2 -21 17 -21 17 -3 -4 9 -11 15 -24
12 -27 -3 -4 -2 -5 1 -2 4 2 13 -2 21 -10 8 -8 22 -15 31 -14 14 0 13 2 -3 9
-11 5 -17 9 -12 11 21 5 28 7 38 8 7 1 5 11 -6 27 l-17 26 59 -6 c32 -2 47 -2
33 1 l-25 5 30 12 29 12 -39 2 c-153 6 -163 10 -135 60 20 32 21 42 2 20z m38
-123 c7 -9 10 -18 7 -22 -8 -7 -37 15 -37 28 0 14 16 11 30 -6z"/>
<path d="M5142 3443 c-24 -24 -24 -25 -2 -8 42 33 44 35 37 35 -4 0 -19 -12
-35 -27z"/>
<path d="M4934 3429 c-10 -12 -36 -30 -56 -40 -39 -20 -62 -43 -31 -32 10 3
23 9 28 12 6 3 20 4 32 3 15 -2 23 4 28 19 4 12 10 17 14 11 4 -6 14 3 25 21
l18 32 -22 -20 c-18 -16 -20 -16 -14 -2 8 23 1 21 -22 -4z"/>
<path d="M5155 3425 c-16 -14 -27 -25 -24 -25 14 0 69 32 69 41 0 15 -13 10
-45 -16z"/>
<path d="M5020 3420 c-7 -13 -7 -20 -1 -20 6 0 8 -8 5 -17 -5 -15 -4 -16 5 -3
7 8 17 24 23 35 10 19 10 19 -7 5 -17 -14 -18 -13 -12 3 9 23 0 22 -13 -3z"/>
<path d="M4983 3401 c-7 -20 -24 -35 -57 -49 -25 -12 -46 -24 -46 -27 0 -3 4
-4 9 0 5 3 17 -2 25 -11 11 -10 16 -11 16 -3 0 13 14 3 16 -12 1 -5 2 -13 3
-18 0 -5 9 -11 19 -15 9 -3 25 -11 35 -18 12 -9 20 -10 25 -2 4 6 25 10 46 9
38 -2 39 -1 18 13 -12 8 -22 21 -22 28 0 17 -17 18 -23 2 -2 -7 3 -19 12 -26
12 -9 8 -9 -14 1 -16 8 -34 13 -40 11 -5 -2 -21 5 -35 16 -21 16 -22 21 -10
29 17 12 33 4 24 -12 -4 -7 -3 -9 1 -4 5 4 19 0 32 -8 13 -9 23 -13 23 -11 0
2 3 11 6 19 4 12 0 14 -15 10 -12 -3 -21 -1 -21 6 0 6 5 11 12 11 6 0 8 3 4 8
-8 7 -12 8 -43 11 -16 1 -16 3 2 13 11 6 21 12 23 13 1 1 -1 12 -6 24 -7 20
-8 20 -19 -8z"/>
<path d="M5215 3410 c-13 -6 -15 -9 -5 -9 8 0 22 4 30 9 18 12 2 12 -25 0z"/>
<path d="M2028 3373 c6 -2 18 -2 25 0 6 3 1 5 -13 5 -14 0 -19 -2 -12 -5z"/>
<path d="M4960 3165 c-7 -8 -9 -15 -5 -15 4 0 1 -8 -6 -17 -12 -14 -10 -14 14
1 26 17 40 35 15 20 -8 -5 -9 -2 -5 9 8 21 3 22 -13 2z"/>
<path d="M4920 3155 c-10 -12 -10 -15 4 -15 9 0 16 7 16 15 0 8 -2 15 -4 15
-2 0 -9 -7 -16 -15z"/>
<path d="M2030 3151 c0 -12 39 -21 46 -10 3 5 17 7 32 4 23 -4 24 -4 7 4 -26
12 -85 14 -85 2z"/>
<path d="M5060 3140 c-11 -7 -11 -10 -2 -10 7 0 11 -3 9 -7 -3 -5 11 -9 31 -9
21 -1 27 1 15 3 -27 5 -30 20 -5 26 11 3 9 5 -8 6 -14 0 -32 -4 -40 -9z"/>
<path d="M4966 3115 c-5 -15 33 -59 43 -49 3 3 -2 10 -12 15 -9 6 -17 15 -17
20 0 6 5 7 10 4 6 -3 10 1 10 9 0 20 -26 21 -34 1z"/>
<path d="M5043 3098 c33 -12 36 -28 5 -21 l-23 5 21 -14 c59 -37 59 -36 72
-22 10 11 10 14 -1 14 -8 0 -26 11 -41 25 -15 14 -35 25 -44 24 -10 0 -6 -5
11 -11z"/>
<path d="M2095 3040 c-3 -5 -2 -10 4 -10 5 0 13 5 16 10 3 6 2 10 -4 10 -5 0
-13 -4 -16 -10z"/>
<path d="M2117 3023 c-10 -10 -8 -23 4 -23 5 0 8 4 5 9 -4 5 0 12 6 14 7 3 8
6 2 6 -6 1 -14 -2 -17 -6z"/>
<path d="M2020 3009 c0 -12 42 -22 49 -12 3 6 13 13 21 16 8 3 -4 5 -27 5 -24
-1 -43 -5 -43 -9z"/>
<path d="M2158 2823 c7 -3 16 -2 19 1 4 3 -2 6 -13 5 -11 0 -14 -3 -6 -6z"/>
<path d="M2203 2728 c-19 -25 -23 -37 -14 -42 5 -4 16 7 24 24 15 30 8 41 -10
18z"/>
<path d="M2040 2680 c-9 -6 -10 -10 -3 -10 6 0 15 5 18 10 8 12 4 12 -15 0z"/>
<path d="M2044 2601 c4 -5 0 -12 -6 -14 -7 -3 4 -6 25 -6 21 -1 37 4 37 10 0
6 -9 9 -20 6 -11 -3 -18 -1 -14 4 3 5 -2 9 -11 9 -9 0 -14 -4 -11 -9z"/>
<path d="M5136 2550 c9 -16 20 -33 26 -36 7 -4 8 -2 4 4 -8 13 5 16 20 5 5 -5
-6 7 -24 25 -41 40 -44 40 -26 2z"/>
<path d="M5304 2516 c11 -9 24 -16 30 -16 12 0 7 5 -24 19 -24 11 -24 11 -6
-3z"/>
<path d="M5075 2440 c-3 -5 -1 -10 4 -10 6 0 11 5 11 10 0 6 -2 10 -4 10 -3 0
-8 -4 -11 -10z"/>
<path d="M1980 2402 l-23 -19 31 0 c17 0 29 4 26 8 -2 4 4 12 13 18 16 9 16
10 -3 11 -12 0 -32 -8 -44 -18z"/>
<path d="M5209 2317 c-11 -8 -16 -31 -17 -78 -2 -55 1 -69 18 -84 18 -17 20
-17 14 -2 -7 18 11 24 21 7 7 -11 45 -33 45 -26 0 2 -7 12 -16 20 -14 15 -14
16 0 16 22 0 20 36 -1 49 -10 6 -13 11 -6 11 6 0 15 -5 19 -12 5 -7 11 -3 17
13 5 13 11 19 14 12 2 -7 10 -10 17 -7 8 3 16 -2 19 -10 4 -9 14 -13 29 -9 18
4 20 3 8 -6 -13 -9 -12 -11 5 -11 11 0 31 -3 45 -5 21 -5 22 -4 5 4 -19 9 -19
9 5 19 l25 11 -26 0 c-14 1 -41 6 -59 13 -31 10 -32 12 -15 25 11 7 28 13 39
13 17 0 18 2 6 10 -12 8 -12 10 -1 10 8 0 11 3 8 7 -4 4 -21 -4 -38 -16 -37
-27 -55 -18 -19 9 14 11 20 20 14 20 -6 0 -21 -11 -33 -24 -17 -18 -19 -25 -9
-29 7 -3 -6 -5 -29 -5 -24 1 -43 6 -43 11 0 5 7 7 15 4 9 -4 19 5 29 26 16 32
16 32 -3 10 -11 -13 -25 -23 -33 -23 -10 0 -9 3 2 10 12 8 11 10 -7 10 -12 0
-23 -5 -25 -11 -2 -6 -15 -9 -28 -6 l-25 4 23 8 c12 4 22 11 22 16 0 12 -12
11 -31 -4z"/>
<path d="M5445 2270 c-13 -6 -15 -9 -5 -9 8 0 22 4 30 9 18 12 2 12 -25 0z"/>
<path d="M1765 2240 c11 -5 27 -9 35 -9 9 0 8 4 -5 9 -11 5 -27 9 -35 9 -9 0
-8 -4 5 -9z"/>
<path d="M5390 2172 c0 -5 11 -14 25 -20 29 -13 31 -10 9 12 -17 17 -34 21
-34 8z"/>
<path d="M5186 2144 c4 -10 11 -24 16 -31 5 -7 4 -13 -3 -15 -16 -5 -19 -48
-4 -48 6 0 12 -6 12 -14 0 -8 -6 -12 -14 -9 -8 3 -13 -2 -13 -12 0 -12 5 -15
20 -10 11 3 20 2 20 -4 0 -5 -9 -13 -20 -16 -19 -6 -20 -15 -20 -128 0 -69 4
-116 9 -109 6 10 15 5 36 -20 15 -18 37 -39 49 -47 18 -12 18 -11 -3 12 -29
32 -20 35 16 7 14 -11 29 -17 33 -15 5 3 25 -5 46 -17 21 -12 34 -16 29 -9 -6
11 -2 12 19 7 18 -4 25 -3 21 4 -3 5 -1 10 5 10 27 0 -5 20 -64 40 -35 11 -72
27 -82 35 -18 13 -17 14 13 15 17 0 33 -5 35 -11 2 -6 15 -9 28 -7 l25 4 -28
12 c-16 7 -49 12 -75 12 -44 1 -46 2 -27 16 17 13 18 16 5 24 -11 7 -12 12 -3
21 8 8 5 20 -13 47 -19 27 -22 37 -12 44 9 5 6 8 -8 8 -12 0 -24 7 -28 15 -4
13 -2 13 14 5 13 -7 21 -7 26 2 4 7 3 8 -4 4 -7 -4 -12 -1 -12 9 0 26 41 54
80 55 19 1 29 4 22 7 -6 2 -10 9 -6 14 6 11 -5 12 -68 9 -27 -1 -48 3 -48 8 0
5 18 10 41 10 23 1 44 3 47 6 3 3 -11 6 -32 6 -49 0 -37 20 12 21 l37 1 -35 9
c-19 5 -43 11 -54 14 -10 2 -24 10 -32 16 -12 10 -13 8 -8 -7z m63 -103 c9 -6
10 -11 2 -15 -13 -8 -31 1 -31 15 0 11 11 11 29 0z m62 -311 c30 -16 61 -35
68 -44 19 -22 2 -20 -34 4 -36 25 -110 60 -124 60 -6 0 -11 5 -11 11 0 13 29
4 101 -31z"/>
<path d="M2060 2099 c0 -5 5 -7 10 -4 6 3 10 8 10 11 0 2 -4 4 -10 4 -5 0 -10
-5 -10 -11z"/>
<path d="M1843 2012 c-7 -4 -2 -13 11 -23 21 -16 22 -16 23 1 2 20 -18 32 -34
22z"/>
<path d="M5273 2014 c4 -4 2 -13 -5 -21 -9 -11 -7 -12 7 -7 13 5 16 4 11 -4
-5 -8 2 -12 21 -12 19 0 24 3 15 9 -8 4 -13 12 -12 17 1 4 -9 12 -21 16 -13 5
-20 6 -16 2z"/>
<path d="M1760 1990 c11 -11 26 -20 33 -20 6 0 1 9 -13 20 -33 26 -46 26 -20
0z"/>
<path d="M1725 1981 c3 -5 0 -11 -5 -13 -6 -2 3 -8 19 -15 28 -10 29 -10 18 8
-6 10 -18 21 -25 24 -7 2 -11 1 -7 -4z"/>
<path d="M1625 1950 l-30 -7 25 -10 c20 -8 26 -7 28 4 2 8 10 12 19 9 8 -3 21
-6 29 -6 8 0 14 -4 14 -9 0 -10 -99 -31 -147 -31 -18 0 -33 -4 -33 -10 0 -5 6
-10 13 -10 8 0 7 -4 -3 -11 -22 -15 18 -6 109 25 40 15 90 27 110 27 20 1 27
3 16 6 -11 2 -27 7 -35 10 -8 3 -21 7 -29 9 -8 1 -24 5 -35 7 -12 2 -34 1 -51
-3z"/>
<path d="M5275 1948 c18 -10 18 -12 1 -17 -14 -5 -9 -11 25 -30 23 -13 39 -19
35 -12 -4 7 0 11 11 11 12 1 8 5 -12 14 -17 7 -36 20 -44 29 -7 10 -19 17 -25
17 -6 0 -2 -6 9 -12z"/>
<path d="M5330 1930 c8 -5 22 -9 30 -9 10 0 8 3 -5 9 -27 12 -43 12 -25 0z"/>
<path d="M1553 1923 c9 -2 23 -2 30 0 6 3 -1 5 -18 5 -16 0 -22 -2 -12 -5z"/>
<path d="M1595 1860 c-13 -6 -15 -9 -5 -9 8 0 22 4 30 9 18 12 2 12 -25 0z"/>
<path d="M5210 1695 c19 -19 36 -35 39 -35 3 0 -10 16 -29 35 -19 19 -36 35
-39 35 -3 0 10 -16 29 -35z"/>
<path d="M5170 1706 c0 -2 8 -10 18 -17 15 -13 16 -12 3 4 -13 16 -21 21 -21
13z"/>
<path d="M5248 1633 c0 -4 -2 -15 -2 -23 -1 -8 -6 -14 -12 -13 -5 1 -23 4 -39
7 -17 3 -24 3 -17 0 6 -3 12 -12 12 -20 0 -10 7 -13 25 -8 15 4 25 2 25 -5 0
-6 -7 -8 -15 -5 -29 12 -4 -24 26 -36 23 -10 28 -17 23 -35 -4 -17 6 -39 41
-84 l46 -61 100 0 99 0 0 134 c0 74 -3 137 -7 139 -15 9 -303 18 -305 10z"/>
<path d="M5172 1521 c-1 -30 4 -43 30 -67 l32 -29 -28 35 c-16 19 -24 36 -19
37 11 4 5 50 -7 58 -4 2 -7 -13 -8 -34z"/>
<path d="M5205 1510 c1 -22 32 -60 48 -60 6 0 2 7 -9 16 -19 15 -19 16 1 9 16
-5 14 0 -9 24 -17 17 -30 31 -31 31 -1 0 -1 -9 0 -20z"/>
<path d="M5240 1251 c0 -16 43 -21 183 -21 115 0 137 2 137 15 0 13 -24 15
-160 15 -88 0 -160 -4 -160 -9z"/>
<path d="M3972 1238 c-34 -34 7 -65 98 -75 73 -7 73 0 6 46 -52 36 -87 46
-104 29z"/>
<path d="M4170 1237 c0 -5 9 -22 21 -38 11 -16 16 -29 10 -29 -5 0 -13 4 -16
10 -7 12 -45 33 -45 25 0 -8 80 -58 85 -54 2 3 -9 25 -25 49 -17 25 -30 41
-30 37z"/>
<path d="M5318 1091 c-16 -27 -28 -60 -28 -74 0 -21 -6 -26 -27 -29 -26 -3
-28 -7 -34 -63 -3 -33 -6 -52 -7 -43 -2 12 -9 15 -27 12 -22 -4 -25 -1 -25 26
0 20 5 30 15 30 9 0 12 6 9 15 -4 8 -12 15 -19 15 -8 0 -14 -32 -18 -107 -11
-166 -10 -175 11 -164 34 18 103 41 125 41 41 0 141 37 158 59 11 14 29 21 51
21 55 0 58 9 58 167 l0 143 -107 0 -108 0 -27 -49z"/>
<path d="M4128 1113 c6 -2 18 -2 25 0 6 3 1 5 -13 5 -14 0 -19 -2 -12 -5z"/>
<path d="M4170 1100 c0 -5 7 -10 15 -10 8 0 15 5 15 10 0 6 -7 10 -15 10 -8 0
-15 -4 -15 -10z"/>
<path d="M4128 1083 c6 -2 18 -2 25 0 6 3 1 5 -13 5 -14 0 -19 -2 -12 -5z"/>
<path d="M4177 1025 c-20 -14 -37 -28 -37 -31 0 -7 38 15 45 26 3 6 11 10 16
10 6 0 1 -13 -10 -29 -12 -16 -21 -33 -21 -37 0 -5 6 0 13 11 57 83 56 92 -6
50z"/>
<path d="M4021 1030 c-41 -10 -66 -33 -58 -54 15 -38 67 -25 137 34 l35 29
-40 0 c-22 -1 -55 -5 -74 -9z"/>
<path d="M4263 990 c-13 -62 -9 -80 5 -29 l9 34 11 -35 c5 -19 10 -26 10 -15
0 11 -5 38 -12 60 l-12 40 -11 -55z"/>
<path d="M4171 899 c-43 -65 -50 -89 -27 -108 19 -16 42 -4 55 27 12 31 26
142 18 142 -3 0 -24 -28 -46 -61z"/>
<path d="M2205 741 c-78 -20 -114 -24 -270 -25 l-180 -1 110 -12 c61 -7 121
-15 135 -18 14 -4 72 -13 130 -20 58 -8 122 -18 143 -24 36 -9 37 -8 36 18 0
14 -4 44 -7 66 l-7 40 -90 -24z"/>
<path d="M1718 723 c6 -2 18 -2 25 0 6 3 1 5 -13 5 -14 0 -19 -2 -12 -5z"/>
</g>
</svg>
